<svg width="691" height="575" viewBox="0 0 691 575" fill="none" xmlns="http://www.w3.org/2000/svg">
<path d="M640 102C668.167 102 691 79.1665 691 51C691 22.8335 668.167 0 640 0C611.833 0 589 22.8335 589 51C589 79.1665 611.833 102 640 102Z" fill="#F0F0F0"/>
<path d="M610.19 27.1234V142.769C610.19 145.172 609.242 147.477 607.553 149.184C605.863 150.892 603.568 151.864 601.166 151.889C601.133 151.892 601.1 151.894 601.066 151.893H587.606C576.837 151.893 566.509 147.615 558.893 140C551.278 132.384 547 122.056 547 111.286V27.1234C547 24.7037 547.961 22.3831 549.672 20.6722C551.383 18.9612 553.704 18 556.123 18H561.577C559.051 25.3706 593.343 28.4738 595.225 18H601.066C603.486 18 605.807 18.9612 607.518 20.6722C609.229 22.3832 610.19 24.7037 610.19 27.1234Z" fill="#BB8588"/>
<path d="M574 6.19565C574 5.87865 574.126 5.57477 574.351 5.35062C574.575 5.12647 574.879 5.00037 575.196 5H583.326C583.643 5.00092 583.946 5.12728 584.169 5.35141C584.393 5.57554 584.518 5.87914 584.518 6.19565C584.518 6.51216 584.393 6.81576 584.169 7.03989C583.946 7.26402 583.643 7.39038 583.326 7.3913H575.196C574.879 7.39092 574.575 7.26486 574.351 7.04071C574.126 6.81656 574 6.51264 574 6.19565Z" fill="#3F3D56"/>
<path d="M604.613 163.231H553.197C549.208 163.226 545.383 161.64 542.562 158.819C539.742 155.998 538.155 152.174 538.15 148.185V67.3437C537.868 67.141 537.638 66.8738 537.48 66.5645C537.321 66.2551 537.239 65.9125 537.239 65.5649V57.4345C537.239 57.087 537.321 56.7444 537.48 56.4352C537.638 56.1259 537.868 55.8589 538.15 55.6562V53.4741C537.868 53.2715 537.638 53.0044 537.48 52.6951C537.321 52.3859 537.239 52.0433 537.239 51.6958V43.5649C537.239 43.2174 537.321 42.8748 537.48 42.5655C537.638 42.2562 537.868 41.9892 538.15 41.7866V37.8427C537.802 37.6555 537.511 37.3771 537.308 37.0372C537.105 36.6973 536.999 36.3087 537 35.913V27.7827C536.999 27.3869 537.105 26.9983 537.308 26.6583C537.511 26.3184 537.802 26.0398 538.15 25.8525V15.0458C538.155 11.0568 539.742 7.2324 542.563 4.41174C545.383 1.59109 549.208 0.0044781 553.197 0H604.613C608.602 0.00449421 612.426 1.59113 615.247 4.4118C618.068 7.23248 619.654 11.0569 619.659 15.0459V38.602C619.93 38.7715 620.153 39.0071 620.308 39.2867C620.463 39.5662 620.544 39.8805 620.544 40.2001V55.7031C620.544 56.0228 620.463 56.3372 620.308 56.6168C620.153 56.8964 619.93 57.1321 619.659 57.3017V148.185C619.654 152.174 618.068 155.998 615.247 158.819C612.426 161.64 608.602 163.226 604.613 163.231ZM553.197 2C549.738 2.00387 546.422 3.37959 543.976 5.82532C541.53 8.27104 540.154 11.5871 540.15 15.0459V27.5537L539.188 27.5908C539.138 27.5926 539.091 27.6135 539.056 27.6492C539.021 27.6849 539.001 27.7327 539 27.7827V35.913C539.001 35.963 539.021 36.0107 539.056 36.0464C539.091 36.082 539.138 36.103 539.188 36.1049L540.15 36.1415V43.1908L539.39 43.3783C539.347 43.3885 539.31 43.4123 539.283 43.446C539.256 43.4798 539.24 43.5216 539.239 43.5649V51.6957C539.24 51.7391 539.256 51.7808 539.283 51.8146C539.31 51.8483 539.347 51.8721 539.39 51.8823L540.15 52.0698V57.0605L539.39 57.248C539.347 57.2581 539.31 57.2819 539.283 57.3157C539.256 57.3494 539.24 57.3912 539.239 57.4345V65.5649C539.24 65.6083 539.255 65.6501 539.283 65.684C539.31 65.7178 539.347 65.7417 539.39 65.7519L540.15 65.9394V148.185C540.154 151.644 541.53 154.96 543.976 157.406C546.422 159.851 549.738 161.227 553.197 161.231H604.613C608.072 161.227 611.387 159.851 613.833 157.405C616.279 154.96 617.655 151.644 617.659 148.185V55.5893H618.544V40.3144H617.659V15.0458C617.655 11.5871 616.279 8.2711 613.833 5.82538C611.387 3.37966 608.072 2.00394 604.613 1.99997L553.197 2Z" fill="#3F3D56"/>
<path d="M590.196 7.3913C590.856 7.3913 591.391 6.85599 591.391 6.19565C591.391 5.53531 590.856 5 590.196 5C589.535 5 589 5.53531 589 6.19565C589 6.85599 589.535 7.3913 590.196 7.3913Z" fill="#3F3D56"/>
<g clip-path="url(#clip0_9_18)">
<path d="M663.29 564.868C660.778 566.222 657.895 566.584 655.154 565.891C652.413 565.199 649.994 563.496 648.328 561.086C647.992 560.597 648.693 560.022 649.029 560.512C650.576 562.76 652.831 564.347 655.385 564.988C657.939 565.628 660.625 565.279 662.958 564.003C663.468 563.727 663.799 564.597 663.298 564.872L663.29 564.868Z" fill="white"/>
<path d="M654.056 539.315C655.131 539.007 656.116 538.42 656.924 537.607C657.733 536.795 658.338 535.783 658.685 534.661C658.862 534.086 659.678 534.451 659.503 535.021C659.114 536.259 658.444 537.376 657.553 538.276C656.662 539.175 655.577 539.83 654.392 540.183C654.283 540.226 654.162 540.223 654.055 540.176C653.948 540.128 653.861 540.039 653.814 539.926C653.77 539.811 653.771 539.682 653.817 539.568C653.862 539.454 653.948 539.363 654.056 539.315Z" fill="white"/>
<path d="M679.999 344.335C679.999 443.924 620.462 528.769 537.076 561.055C524.391 565.976 511.297 569.62 497.967 571.939C461.296 578.315 423.697 574.694 388.709 561.419C304.796 529.398 244.823 444.262 244.863 344.286C244.863 216.945 342.274 113.671 462.432 113.671C491.004 113.669 519.297 119.634 545.694 131.225C572.091 142.816 596.077 159.807 616.28 181.226C636.483 202.646 652.509 228.075 663.442 256.061C674.375 284.048 680.001 314.043 679.999 344.335Z" fill="#F2F2F2"/>
<path d="M537.075 561.055C524.389 565.976 511.295 569.62 497.965 571.939C461.293 578.315 423.694 574.695 388.706 561.419L398.753 518.676L399.36 516.11L419.864 516.194L522.873 516.586L524.192 520.717L537.075 561.055Z" fill="#2F2E41"/>
<path d="M182.195 95H6.79456C3.04203 95 0 98.2251 0 102.204V314.516C0 318.494 3.04203 321.719 6.79456 321.719H182.195C185.947 321.719 188.989 318.494 188.989 314.516V102.204C188.989 98.2251 185.947 95 182.195 95Z" fill="#E6E6E6"/>
<path d="M181.043 99.7966H7.61669C5.27136 99.7966 3.37009 101.812 3.37009 104.299V312.421C3.37009 314.908 5.27136 316.924 7.61669 316.924H181.043C183.388 316.924 185.289 314.908 185.289 312.421V104.299C185.289 101.812 183.388 99.7966 181.043 99.7966Z" fill="white"/>
<path d="M94.4954 309.203C100.127 309.203 104.693 304.363 104.693 298.392C104.693 292.421 100.127 287.58 94.4954 287.58C88.8633 287.58 84.2976 292.421 84.2976 298.392C84.2976 304.363 88.8633 309.203 94.4954 309.203Z" fill="#E6E6E6"/>
<path d="M92.7721 176.655H34.2021V183.007H92.7721V176.655Z" fill="#E6E6E6"/>
<path d="M122.6 195.69H34.2021V202.043H122.6V195.69Z" fill="#BB8588"/>
<path d="M113.924 214.845H34.2021V221.198H113.924V214.845Z" fill="#E6E6E6"/>
<path d="M157.309 233.494H34.2021V239.847H157.309V233.494Z" fill="#D7D7AB"/>
<path d="M135.811 251.254H35.4821V257.607H135.811V251.254Z" fill="#E6E6E6"/>
<path d="M255.903 451.585C256.621 452.368 257.281 453.21 257.875 454.102L350.251 451.703L361.027 430.825L392.872 443.949L377.175 482.878C375.907 486.022 373.712 488.646 370.918 490.355C368.125 492.064 364.884 492.766 361.681 492.357L257.317 478.986C254.855 482.29 251.503 484.722 247.706 485.957C243.909 487.192 239.847 487.172 236.061 485.9C232.275 484.628 228.944 482.164 226.511 478.836C224.078 475.507 222.658 471.473 222.44 467.268C222.223 463.064 223.218 458.889 225.293 455.299C227.368 451.709 230.426 448.873 234.058 447.17C237.69 445.467 241.725 444.976 245.627 445.764C249.529 446.551 253.112 448.579 255.899 451.578L255.903 451.585Z" fill="#ED9DA0"/>
<path d="M389.475 467.313L345.504 448.661L345.691 447.832C345.88 446.992 364.595 364.082 367.08 350.758C369.668 336.877 379.126 333.039 379.527 332.882L379.82 332.768L397.222 338.384L404.866 402.045L389.475 467.313Z" fill="#B41A23"/>
<path d="M411.428 275.321V227.364C411.368 218.903 412.886 210.512 415.893 202.674C418.9 194.836 423.337 187.705 428.95 181.689C434.563 175.674 441.242 170.893 448.602 167.621C455.962 164.349 463.859 162.65 471.84 162.622C479.822 162.594 487.729 164.238 495.11 167.458C502.49 170.678 509.199 175.412 514.849 181.388C520.5 187.363 524.982 194.463 528.037 202.28C531.093 210.097 532.663 218.476 532.656 226.938C532.656 227.08 532.656 227.222 532.656 227.364V275.321C532.654 277.61 531.795 279.804 530.268 281.422C528.742 283.04 526.673 283.951 524.514 283.954H419.57C417.412 283.951 415.342 283.04 413.816 281.422C412.29 279.804 411.431 277.61 411.428 275.321Z" fill="#2F2E41"/>
<path d="M446.288 273.617L484.616 273.635L492.745 319.635L444.633 320.502L446.288 273.617Z" fill="#ED9DA0"/>
<path d="M459.586 282.836C484.129 282.836 504.026 261.742 504.026 235.721C504.026 209.7 484.129 188.606 459.586 188.606C435.043 188.606 415.146 209.7 415.146 235.721C415.146 261.742 435.043 282.836 459.586 282.836Z" fill="#ED9DA0"/>
<path d="M380.233 332.374L423.464 317.354L436.16 298.895L497.947 302.771L507.019 324.314L539.966 340.82L534.902 440.512L526.239 533.81C481.698 509.358 398.573 528 397.845 528.303L380.233 332.374Z" fill="#BD2D36"/>
<path d="M401.172 230.667C401.187 217.189 406.243 204.268 415.232 194.737C424.221 185.207 436.409 179.847 449.122 179.832H458.169C470.881 179.847 483.069 185.208 492.058 194.738C501.047 204.268 506.103 217.189 506.117 230.667V231.626H486.998L480.477 212.266L479.172 231.626H469.292L466.002 221.858L465.343 231.626H401.172V230.667Z" fill="#2F2E41"/>
<path d="M455.214 289.347C454.316 288.058 453.78 286.527 453.667 284.929C453.554 283.332 453.869 281.733 454.576 280.317C464.163 260.985 477.586 225.261 459.769 203.231L458.495 201.65H510.219V283.984L463.23 292.774C462.754 292.863 462.271 292.909 461.787 292.909C460.504 292.909 459.239 292.586 458.097 291.968C456.955 291.349 455.967 290.452 455.215 289.35L455.214 289.347Z" fill="#2F2E41"/>
<path d="M484.418 529.707C485.448 529.681 486.48 529.741 487.501 529.887L548.653 456.443L541.539 433.876L572.267 418.042L588.522 456.705C589.835 459.829 590.158 463.32 589.44 466.654C588.723 469.988 587.005 472.985 584.544 475.196L504.338 547.242C504.95 551.403 504.351 555.662 502.624 559.453C500.896 563.244 498.12 566.388 494.666 568.466C491.212 570.545 487.243 571.459 483.287 571.087C479.331 570.715 475.575 569.076 472.52 566.386C469.464 563.696 467.253 560.084 466.181 556.03C465.109 551.975 465.227 547.671 466.518 543.689C467.81 539.707 470.214 536.237 473.412 533.739C476.609 531.242 480.448 529.835 484.418 529.707Z" fill="#ED9DA0"/>
<path d="M543.768 463.592L518.26 399.98L528.209 355.671L538.929 341.314C539.714 340.958 540.56 340.779 541.414 340.787C542.268 340.795 543.111 340.991 543.89 341.363C547.846 343.049 551.208 348.219 553.895 356.729L577.801 428.919L543.768 463.592Z" fill="#B41A23"/>
<path d="M94.3315 112.658C90.0426 112.658 85.8499 114.006 82.2838 116.532C78.7176 119.058 75.9381 122.648 74.2967 126.849C72.6553 131.05 72.2257 135.673 73.0623 140.132C73.8989 144.592 75.9642 148.689 78.9968 151.904C82.0295 155.119 85.8933 157.309 90.0998 158.196C94.3063 159.083 98.6664 158.628 102.629 156.888C106.591 155.148 109.978 152.201 112.361 148.42C114.744 144.64 116.015 140.195 116.015 135.648C116.015 129.55 113.731 123.703 109.664 119.391C105.597 115.08 100.082 112.658 94.3306 112.658H94.3315ZM94.3315 119.554C95.618 119.554 96.8757 119.959 97.9454 120.716C99.0152 121.474 99.8489 122.551 100.341 123.812C100.834 125.072 100.962 126.458 100.711 127.796C100.46 129.134 99.8409 130.363 98.9312 131.327C98.0214 132.292 96.8624 132.949 95.6005 133.215C94.3387 133.481 93.0308 133.344 91.8421 132.822C90.6535 132.3 89.6376 131.416 88.9228 130.282C88.208 129.148 87.8265 127.815 87.8265 126.451C87.8265 124.622 88.5119 122.867 89.7318 121.574C90.9517 120.281 92.6062 119.554 94.3315 119.554ZM94.3315 152.757C91.7616 152.745 89.2334 152.068 86.9662 150.785C84.6989 149.502 82.7611 147.652 81.3207 145.396C81.4252 140.798 89.9948 138.267 94.3315 138.267C98.6681 138.267 107.241 140.798 107.342 145.396C105.9 147.651 103.962 149.499 101.695 150.781C99.4282 152.064 96.9008 152.741 94.3315 152.756V152.757Z" fill="#FFB8B8"/>
<path d="M95.3337 300.156C103.763 283.779 123.956 273.407 140.476 282.756C147.912 286.964 153.822 294.406 155.698 303.203C157.876 313.421 153.288 323.165 148.551 331.747C145.98 336.406 143.164 340.972 141.036 345.884C138.833 350.974 137.259 356.856 138.917 362.393C140.411 367.382 144.154 371.009 148.254 373.677C152.779 376.508 157.592 378.787 162.601 380.47C172.911 384.106 183.787 385.598 194.63 384.864C200.021 384.476 205.366 383.56 210.598 382.128C216.161 380.624 221.621 378.718 227.193 377.248C236.498 374.798 247.106 373.579 255.929 378.501C264.501 383.284 268.337 393.288 269.523 403.019C271.714 420.989 264.993 439.638 252.859 452.222C247.037 458.259 239.711 463.248 231.732 465.288C224.768 467.069 238.713 467.79 245.984 462.972C261.109 452.951 271.166 435.329 273.271 416.644C274.367 406.908 273.251 396.421 269.087 387.584C266.891 382.801 263.473 378.768 259.224 375.94C254.935 373.29 250.13 371.719 245.178 371.348C234.012 370.258 223.285 374.319 212.693 377.431C207.283 379.095 201.738 380.218 196.131 380.784C190.688 381.262 185.213 381.168 179.787 380.502C174.403 379.829 169.097 378.58 163.949 376.776C158.906 375.123 154.076 372.808 149.574 369.886C145.602 367.193 142.166 363.336 141.971 358.08C141.758 352.381 144.469 347.05 147.047 342.245C152.143 332.753 158.428 323.469 159.76 312.357C160.923 302.637 157.234 293.057 150.863 286.125C147.67 282.606 143.827 279.824 139.573 277.953C135.319 276.082 130.747 275.163 126.142 275.252C116.69 275.539 107.64 279.897 100.688 286.589C97.2399 289.911 94.3385 293.818 92.1029 298.151C90.9512 300.388 94.1735 302.383 95.326 300.148L95.3337 300.156Z" fill="#3F3D56"/>
</g>
<defs>
<clipPath id="clip0_9_18">
<rect width="680" height="480" fill="white" transform="translate(0 95)"/>
</clipPath>
</defs>
</svg>
