<svg width="620" height="560" viewBox="0 0 620 560" fill="none" xmlns="http://www.w3.org/2000/svg">
<path d="M206.767 313.767L155.224 287.62C155.224 287.62 137.915 269.02 127.045 260.628C116.175 252.235 112.829 258.399 112.829 258.399L108.256 265.829L119.301 280.809L149.13 305.452L202.428 325.819C203.261 327.15 204.465 328.224 205.899 328.915C207.333 329.606 208.938 329.886 210.529 329.722C212.119 329.558 213.63 328.958 214.884 327.99C216.139 327.022 217.086 325.727 217.616 324.255C218.146 322.783 218.238 321.194 217.879 319.674C217.521 318.153 216.727 316.763 215.591 315.665C214.455 314.566 213.023 313.805 211.461 313.469C209.9 313.133 208.272 313.237 206.768 313.767H206.767Z" fill="#FFB9B9"/>
<path d="M72.7013 291.154L69.6502 272.94L61.0338 270.839C61.0338 270.839 54.1952 268.784 52.5972 282.223C50.9992 295.661 52.2384 320.751 52.2384 320.751L34.7445 374.796C33.2894 375.456 32.0565 376.506 31.1893 377.824C30.3222 379.141 29.8566 380.672 29.8466 382.238C29.8366 383.804 30.2828 385.34 31.1331 386.668C31.9834 387.995 33.2029 389.06 34.6495 389.738C36.0962 390.416 37.7104 390.679 39.3043 390.497C40.8983 390.314 42.4063 389.694 43.6527 388.708C44.8992 387.721 45.8328 386.41 46.3449 384.926C46.857 383.442 46.9265 381.847 46.5453 380.326L69.4734 329.156L72.7013 291.154Z" fill="#FFB9B9"/>
<path d="M143.97 546.746H155.245L160.609 504.319H143.968L143.97 546.746Z" fill="#FFB9B9"/>
<path d="M20.993 546.746H32.2684L37.6321 504.319H20.9915L20.993 546.746Z" fill="#FFB9B9"/>
<path d="M107.724 246.304H57.1626C56.1225 246.303 55.1253 245.899 54.3898 245.182C53.6543 244.464 53.2406 243.491 53.2396 242.476V221.211C53.2396 213.655 56.3164 206.408 61.7931 201.065C67.2697 195.722 74.6977 192.72 82.4429 192.72C90.1881 192.72 97.616 195.722 103.093 201.065C108.569 206.408 111.646 213.655 111.646 221.211V242.473C111.646 243.488 111.233 244.462 110.498 245.18C109.762 245.898 108.765 246.303 107.724 246.304Z" fill="#2F2E41"/>
<path d="M104.285 235.323C104.285 235.323 101.642 258.863 105.366 264.448C107.595 267.855 108.561 271.904 108.104 275.922L89.8171 281.209L67.4489 271.202C67.4489 271.202 86.836 245.458 82.3029 237.58C77.7698 229.701 104.285 235.323 104.285 235.323Z" fill="#FFB9B9"/>
<path d="M76.6552 254.771L57.9539 270.346L73.2987 317.729L76.7614 328.31C76.7614 328.31 55.6157 347.33 42.5323 400.463C29.4489 453.597 8.04517 524.198 8.04517 524.198L53.2295 536.814L89.9851 416.622L133.218 510.917L138.21 538.807L176.681 527.737L167.606 457.79L122.229 336.714L126.942 304.617C126.942 304.617 134.02 288.597 121.724 271.636L117.864 255.699L104.047 252.379L76.6552 254.771Z" fill="#B41A23"/>
<path d="M107.229 234.939C112.901 224.817 109.088 212.125 98.7118 206.591C88.336 201.058 75.3269 204.778 69.655 214.901C63.9832 225.023 67.7965 237.715 78.1722 243.249C88.548 248.782 101.557 245.062 107.229 234.939Z" fill="#FFB9B9"/>
<path d="M118.555 223.341H87.6385L87.3215 219.011L85.7367 223.341H80.9759L80.3474 214.758L77.2056 223.341H67.994V222.916C68.001 216.941 70.4371 211.212 74.7678 206.987C79.0986 202.762 84.9704 200.385 91.095 200.379H95.4535C101.578 200.385 107.45 202.762 111.781 206.987C116.111 211.212 118.548 216.941 118.555 222.916L118.555 223.341Z" fill="#2F2E41"/>
<path d="M87.3849 250.272C87.1511 250.272 86.9177 250.252 86.6874 250.213L64.0483 246.316V209.814H88.969L88.349 210.515C79.7644 220.282 86.2317 236.12 90.8507 244.69C91.1908 245.318 91.3421 246.027 91.2873 246.735C91.2324 247.444 90.9736 248.123 90.5407 248.694C90.1785 249.182 89.7027 249.58 89.1524 249.854C88.602 250.129 87.9928 250.272 87.3748 250.272L87.3849 250.272Z" fill="#2F2E41"/>
<path d="M274.605 441.636L76.1989 510.072C71.2937 511.757 65.9036 511.476 61.2109 509.289C56.5182 507.102 52.9061 503.189 51.1667 498.408L17.0809 404.36C15.3536 399.574 15.6423 394.315 17.8838 389.737C20.1253 385.159 24.1364 381.635 29.0375 379.938L227.444 311.501C232.349 309.816 237.74 310.098 242.432 312.284C247.125 314.471 250.737 318.385 252.476 323.166L286.56 417.214C288.287 422 287.998 427.258 285.757 431.837C283.516 436.415 279.505 439.939 274.604 441.636H274.605Z" fill="#D7D7AB"/>
<path opacity="0.096" d="M286.562 417.212L286.742 417.71C288.398 422.28 288.125 427.305 285.983 431.679C283.841 436.053 280.005 439.417 275.321 441.032L75.9213 509.812C71.2374 511.427 66.0877 511.161 61.6049 509.072C57.1221 506.983 53.6731 503.243 52.0166 498.674L51.8361 498.176L286.562 417.212Z" fill="#F2F2F2"/>
<path d="M63.8183 401.772C50.6667 410.215 33.8113 403.861 27.9167 394.606L28.8568 394.085C40.0531 387.278 56.6798 391.071 63.8183 401.772Z" fill="#F2F2F2"/>
<path d="M228.623 425.725C225.404 426.836 222.506 426.784 220.008 425.574C214.361 422.837 211.715 414.722 209.583 408.201C208.963 406.304 208.379 404.512 207.783 403.047L207.774 403.025C206.738 400.119 206.919 396.932 208.277 394.156C209.635 391.38 212.061 389.238 215.028 388.197L241.715 378.992C244.93 377.882 247.825 377.933 250.318 379.143C255.963 381.876 258.614 389.989 260.745 396.507C261.365 398.408 261.953 400.204 262.551 401.67C263.593 404.579 263.416 407.771 262.058 410.552C260.701 413.334 258.272 415.48 255.3 416.523L228.623 425.725ZM208.891 402.631C209.5 404.131 210.09 405.937 210.715 407.848C212.775 414.16 215.341 422.016 220.535 424.534C222.765 425.615 225.281 425.646 228.226 424.631L254.905 415.429C257.577 414.492 259.763 412.563 260.987 410.063C262.21 407.563 262.373 404.692 261.44 402.076C260.836 400.594 260.243 398.78 259.615 396.859C257.553 390.549 254.985 382.696 249.792 380.181C247.565 379.102 245.052 379.071 242.111 380.085L215.426 389.29C212.756 390.227 210.573 392.153 209.35 394.65C208.127 397.148 207.962 400.015 208.892 402.63L208.891 402.631Z" fill="#F2F2F2"/>
<path d="M58.2863 404.813C53.5968 406.4 48.5451 406.671 43.7056 405.595C36.6377 404.083 30.2208 399.965 26.9658 394.852L26.6395 394.339L28.1066 393.526C39.4711 386.62 56.5131 390.364 63.8686 401.389L64.191 401.872L63.6973 402.19C62.0092 403.275 60.1923 404.156 58.2863 404.813ZM28.3127 394.746C31.5003 399.367 37.4321 403.063 43.9606 404.462C50.3067 405.908 56.9811 404.857 62.5387 401.537C55.3437 391.382 39.4021 388.014 28.7258 394.516L28.3127 394.746Z" fill="#3F3D56"/>
<path d="M65.2566 472.314C63.5904 472.957 61.7762 473.146 60.0084 472.86C58.2407 472.573 56.5863 471.823 55.2228 470.688C53.6267 469.328 52.4168 467.589 51.7096 465.639C51.0025 463.69 50.8218 461.595 51.185 459.558C51.5224 457.805 52.3507 456.177 53.5782 454.855C54.8056 453.533 56.3842 452.569 58.139 452.068L93.6972 439.803C95.3852 439.12 97.2336 438.905 99.0388 439.182C100.844 439.459 102.536 440.217 103.927 441.373C105.522 442.734 106.73 444.474 107.436 446.423C108.142 448.373 108.321 450.466 107.957 452.503C107.255 456.083 104.78 458.72 101.002 459.982L65.4426 472.247L65.2566 472.314ZM58.3591 453.221C56.8418 453.678 55.4808 454.53 54.4223 455.685C53.3638 456.84 52.6479 458.254 52.3514 459.776C52.0241 461.611 52.1869 463.498 52.8241 465.254C53.4612 467.011 54.5513 468.577 55.9892 469.803C57.2218 470.822 58.7195 471.488 60.3163 471.727C61.9131 471.966 63.5466 471.769 65.0357 471.158L100.608 458.887C102.162 458.45 103.561 457.602 104.651 456.437C105.741 455.272 106.479 453.835 106.784 452.286C107.112 450.451 106.95 448.565 106.313 446.808C105.677 445.052 104.588 443.485 103.151 442.259C101.916 441.241 100.417 440.576 98.8197 440.336C97.2222 440.096 95.5878 440.29 94.0964 440.898L58.518 453.17L58.3545 453.225L58.3591 453.221Z" fill="#F2F2F2"/>
<path d="M228.861 398.054L217.651 401.92C216.908 402.177 216.091 402.135 215.379 401.803C214.668 401.472 214.121 400.878 213.858 400.153C213.595 399.428 213.638 398.631 213.978 397.937C214.318 397.243 214.926 396.709 215.67 396.452L226.879 392.586C227.622 392.329 228.439 392.372 229.151 392.703C229.862 393.034 230.409 393.628 230.672 394.353C230.935 395.078 230.892 395.875 230.552 396.569C230.212 397.263 229.604 397.797 228.861 398.054Z" fill="#D6D6E3"/>
<path d="M232.032 406.803L220.822 410.669C220.079 410.926 219.262 410.883 218.551 410.552C217.839 410.22 217.292 409.627 217.029 408.902C216.766 408.177 216.81 407.379 217.149 406.685C217.489 405.991 218.097 405.458 218.841 405.201L230.05 401.335C230.418 401.208 230.808 401.153 231.198 401.173C231.588 401.193 231.97 401.288 232.322 401.452C232.674 401.616 232.99 401.846 233.251 402.129C233.512 402.412 233.713 402.743 233.843 403.102C233.973 403.461 234.03 403.841 234.009 404.222C233.989 404.602 233.891 404.975 233.723 405.318C233.555 405.662 233.319 405.97 233.029 406.225C232.739 406.479 232.4 406.676 232.032 406.803Z" fill="#D6D6E3"/>
<path d="M235.202 415.551L223.993 419.418C223.25 419.674 222.433 419.632 221.721 419.3C221.01 418.969 220.463 418.375 220.2 417.65C219.937 416.925 219.98 416.128 220.32 415.434C220.66 414.74 221.268 414.206 222.011 413.95L233.221 410.083C233.589 409.956 233.979 409.901 234.369 409.921C234.758 409.941 235.14 410.036 235.493 410.2C235.845 410.364 236.161 410.595 236.422 410.878C236.683 411.161 236.884 411.491 237.014 411.85C237.144 412.209 237.201 412.59 237.18 412.97C237.159 413.351 237.062 413.723 236.894 414.067C236.726 414.41 236.49 414.718 236.199 414.973C235.909 415.228 235.571 415.424 235.202 415.551Z" fill="#D6D6E3"/>
<path d="M248.477 391.288L237.268 395.154C236.524 395.411 235.707 395.368 234.996 395.037C234.285 394.706 233.737 394.112 233.474 393.387C233.212 392.662 233.255 391.865 233.595 391.171C233.934 390.477 234.543 389.943 235.286 389.686L246.496 385.82C247.239 385.563 248.056 385.605 248.767 385.937C249.479 386.268 250.026 386.862 250.289 387.587C250.551 388.312 250.508 389.109 250.168 389.803C249.829 390.497 249.22 391.031 248.477 391.288Z" fill="#D6D6E3"/>
<path d="M251.647 400.036L240.438 403.903C239.695 404.159 238.877 404.117 238.166 403.786C237.455 403.454 236.907 402.861 236.645 402.136C236.382 401.411 236.425 400.613 236.765 399.919C237.105 399.225 237.713 398.691 238.456 398.435L249.666 394.568C250.034 394.442 250.424 394.387 250.813 394.407C251.203 394.427 251.585 394.522 251.937 394.686C252.29 394.85 252.605 395.08 252.866 395.363C253.127 395.646 253.329 395.977 253.459 396.336C253.589 396.695 253.645 397.075 253.625 397.456C253.604 397.836 253.507 398.209 253.339 398.552C253.17 398.896 252.935 399.204 252.644 399.458C252.354 399.713 252.015 399.909 251.647 400.036Z" fill="#D6D6E3"/>
<path d="M254.818 408.784L243.609 412.651C242.865 412.907 242.048 412.865 241.337 412.534C240.626 412.202 240.078 411.609 239.816 410.883C239.553 410.158 239.596 409.361 239.936 408.667C240.275 407.973 240.884 407.439 241.627 407.183L252.837 403.316C253.205 403.189 253.595 403.134 253.984 403.154C254.374 403.175 254.756 403.269 255.108 403.433C255.461 403.598 255.776 403.828 256.037 404.111C256.298 404.394 256.5 404.725 256.63 405.084C256.76 405.443 256.816 405.823 256.796 406.203C256.775 406.584 256.678 406.956 256.51 407.3C256.341 407.644 256.105 407.951 255.815 408.206C255.525 408.461 255.186 408.657 254.818 408.784Z" fill="#D6D6E3"/>
<path d="M259.947 343.719L25.175 424.601L25.5709 425.695L260.343 344.813L259.947 343.719Z" fill="#3F3D56"/>
<path d="M274.605 441.636L76.1989 510.072C71.2937 511.757 65.9036 511.476 61.2109 509.289C56.5182 507.102 52.9061 503.189 51.1667 498.408L17.0809 404.36C15.3536 399.574 15.6423 394.315 17.8838 389.737C20.1253 385.159 24.1364 381.635 29.0375 379.938L227.444 311.501C232.349 309.816 237.74 310.098 242.432 312.284C247.125 314.471 250.737 318.385 252.476 323.166L286.56 417.214C288.287 422 287.998 427.258 285.757 431.837C283.516 436.415 279.505 439.939 274.604 441.636H274.605ZM29.4336 381.029C24.8288 382.623 21.0602 385.934 18.9545 390.235C16.8488 394.537 16.5781 399.477 18.2016 403.973L52.285 498.021C53.9188 502.514 57.3123 506.19 61.7211 508.244C66.1298 510.299 71.1939 510.563 75.8021 508.979L274.209 440.542C278.814 438.948 282.582 435.637 284.688 431.336C286.794 427.035 287.065 422.094 285.441 417.599L251.357 323.553C249.725 319.06 246.331 315.382 241.923 313.327C237.514 311.272 232.449 311.007 227.84 312.59L29.4336 381.029Z" fill="#3F3D56"/>
<path d="M182.022 554.02C178.697 556.856 174.408 558.381 169.993 558.295C161.847 558.179 146.627 557.941 143.093 557.794C138.365 557.587 139.932 553.56 140.086 550.79V550.516C140.141 547.737 140.698 541.716 141.641 540.775C142.585 539.834 145.812 544.964 145.812 544.964C145.812 544.964 152.115 546.796 153.848 541.3C155.582 535.805 159.103 535.273 159.103 535.273C160.702 534.583 160.781 538.729 160.781 538.729L174.121 545.587L181.949 546.809C182.2 546.924 182.426 547.041 182.641 547.156C186.179 549.134 184.612 551.785 182.022 554.02Z" fill="#090814"/>
<path d="M60.3146 554.02C56.9905 556.856 52.7012 558.381 48.286 558.295C40.14 558.179 24.92 557.941 21.386 557.794C16.6585 557.587 18.2256 553.56 18.379 550.79V550.516C18.4341 547.737 18.9913 541.716 19.9344 540.775C20.8776 539.834 24.1054 544.964 24.1054 544.964C24.1054 544.964 30.4077 546.796 32.1413 541.3C33.875 535.805 37.3966 535.273 37.3966 535.273C38.9954 534.583 39.0744 538.729 39.0744 538.729L52.4144 545.587L60.2418 546.809C60.4929 546.924 60.7192 547.041 60.9339 547.156C64.4725 549.134 62.9054 551.785 60.3146 554.02Z" fill="#090814"/>
<path d="M594.904 133.076H591.748V48.7839C591.747 35.8456 586.479 23.4372 577.101 14.2884C567.724 5.1397 555.005 4.30572e-09 541.743 5.85965e-09H358.69C352.123 -9.92853e-05 345.621 1.26166 339.554 3.71324C333.487 6.16482 327.974 9.7582 323.331 14.2882C318.688 18.8182 315.004 24.1962 312.491 30.115C309.978 36.0338 308.685 42.3775 308.685 48.7839V511.216C308.685 524.154 313.953 536.563 323.331 545.712C332.709 554.86 345.428 560 358.69 560H541.743C555.005 560 567.724 554.86 577.102 545.711C586.479 536.562 591.748 524.154 591.748 511.215V193.077H594.903L594.904 133.076Z" fill="#090814"/>
<path d="M542.969 12.6901H519.075C520.174 15.3185 520.594 18.1703 520.297 20.9942C519.999 23.8181 518.995 26.5273 517.372 28.8833C515.749 31.2392 513.556 33.1695 510.988 34.504C508.42 35.8386 505.555 36.5364 502.645 36.5361H397.777C394.867 36.5364 392.002 35.8386 389.434 34.504C386.866 33.1695 384.673 31.2392 383.05 28.8833C381.427 26.5273 380.422 23.8181 380.125 20.9942C379.828 18.1703 380.248 15.3185 381.347 12.6901H359.027C349.123 12.6901 339.624 16.5286 332.62 23.3611C325.617 30.1937 321.682 39.4607 321.682 49.1234V510.876C321.682 515.66 322.648 520.398 324.525 524.818C326.402 529.239 329.153 533.255 332.62 536.638C336.088 540.021 340.205 542.705 344.736 544.536C349.267 546.367 354.123 547.309 359.027 547.309H542.961C552.866 547.309 562.364 543.471 569.368 536.638C576.371 529.806 580.306 520.539 580.306 510.877V49.1234C580.306 39.4621 576.372 30.1964 569.371 23.3641C562.369 16.5317 552.873 12.6923 542.97 12.6901H542.969Z" fill="white"/>
<path d="M0 558.974C0 559.521 1.08499 559.957 2.43968 559.957H617.56C618.913 559.957 620 559.518 620 558.974C620 558.43 618.915 557.987 617.56 557.987H2.43968C1.08499 557.987 0 558.427 0 558.974Z" fill="#F2F2F2"/>
<path d="M551.829 203.38H351.765C349.895 203.378 348.103 202.652 346.781 201.362C345.459 200.073 344.715 198.324 344.713 196.5V175.497C344.715 173.673 345.459 171.924 346.781 170.635C348.103 169.345 349.895 168.619 351.765 168.617H551.829C553.699 168.619 555.492 169.345 556.814 170.635C558.136 171.924 558.879 173.673 558.882 175.497V196.501C558.879 198.325 558.136 200.073 556.814 201.363C555.492 202.653 553.699 203.379 551.829 203.381V203.38ZM351.765 169.337C350.092 169.339 348.488 169.988 347.305 171.142C346.122 172.296 345.457 173.861 345.455 175.493V196.496C345.457 198.128 346.122 199.693 347.305 200.847C348.488 202.001 350.092 202.65 351.765 202.652H551.829C553.502 202.65 555.106 202.001 556.289 200.847C557.472 199.693 558.137 198.128 558.139 196.496V175.497C558.138 173.865 557.473 172.3 556.29 171.145C555.107 169.991 553.503 169.342 551.829 169.34L351.765 169.337Z" fill="#CCCCCC"/>
<path d="M378.799 197.974C376.371 197.974 373.998 197.272 371.979 195.956C369.96 194.64 368.387 192.77 367.458 190.582C366.529 188.393 366.286 185.985 366.76 183.662C367.233 181.339 368.402 179.205 370.119 177.531C371.836 175.856 374.023 174.715 376.404 174.253C378.785 173.791 381.253 174.028 383.496 174.935C385.739 175.841 387.656 177.376 389.005 179.345C390.354 181.315 391.074 183.63 391.074 185.999C391.074 189.175 389.781 192.221 387.479 194.467C385.177 196.713 382.054 197.974 378.799 197.974Z" fill="#6FA27A"/>
<path d="M533.707 195.776H402.682C402.288 195.782 401.897 195.712 401.531 195.569C401.165 195.426 400.832 195.214 400.551 194.944C400.27 194.675 400.047 194.353 399.895 193.999C399.742 193.644 399.664 193.264 399.664 192.879C399.664 192.495 399.742 192.114 399.895 191.76C400.047 191.405 400.27 191.084 400.551 190.814C400.832 190.544 401.165 190.332 401.531 190.189C401.897 190.046 402.288 189.976 402.682 189.982H533.707C534.101 189.976 534.492 190.046 534.858 190.189C535.224 190.332 535.557 190.544 535.838 190.814C536.118 191.084 536.341 191.405 536.494 191.76C536.646 192.114 536.724 192.495 536.724 192.879C536.724 193.264 536.646 193.644 536.494 193.999C536.341 194.353 536.118 194.675 535.838 194.944C535.557 195.214 535.224 195.426 534.858 195.569C534.492 195.712 534.101 195.782 533.707 195.776Z" fill="#6FA27A"/>
<path d="M491.019 183.464H402.678C402.284 183.47 401.893 183.4 401.527 183.257C401.161 183.114 400.828 182.902 400.547 182.632C400.266 182.363 400.043 182.041 399.891 181.687C399.739 181.332 399.66 180.952 399.66 180.567C399.66 180.183 399.739 179.802 399.891 179.448C400.043 179.093 400.266 178.772 400.547 178.502C400.828 178.232 401.161 178.02 401.527 177.877C401.893 177.734 402.284 177.664 402.678 177.67H491.019C491.413 177.664 491.804 177.734 492.17 177.877C492.536 178.02 492.869 178.232 493.15 178.502C493.431 178.772 493.654 179.093 493.806 179.448C493.958 179.802 494.037 180.183 494.037 180.567C494.037 180.952 493.958 181.332 493.806 181.687C493.654 182.041 493.431 182.363 493.15 182.632C492.869 182.902 492.536 183.114 492.17 183.257C491.804 183.4 491.413 183.47 491.019 183.464Z" fill="#6FA27A"/>
<path d="M551.829 257.194H351.765C349.895 257.192 348.103 256.466 346.781 255.177C345.459 253.887 344.715 252.138 344.713 250.314V229.311C344.715 227.487 345.459 225.739 346.781 224.449C348.103 223.159 349.895 222.433 351.765 222.431H551.829C553.699 222.433 555.492 223.159 556.814 224.449C558.136 225.739 558.879 227.487 558.882 229.311V250.315C558.879 252.139 558.136 253.887 556.814 255.177C555.492 256.467 553.699 257.193 551.829 257.195V257.194ZM351.765 223.151C350.092 223.153 348.488 223.802 347.305 224.956C346.122 226.11 345.457 227.675 345.455 229.307V250.31C345.457 251.942 346.122 253.507 347.305 254.661C348.488 255.815 350.092 256.464 351.765 256.466H551.829C553.502 256.464 555.106 255.815 556.289 254.661C557.472 253.507 558.137 251.942 558.139 250.31V229.311C558.138 227.679 557.473 226.114 556.29 224.959C555.107 223.805 553.503 223.156 551.829 223.154L351.765 223.151Z" fill="#CCCCCC"/>
<path d="M378.799 251.788C376.371 251.788 373.998 251.086 371.979 249.77C369.96 248.454 368.387 246.584 367.458 244.395C366.529 242.207 366.286 239.799 366.76 237.476C367.233 235.153 368.402 233.019 370.119 231.345C371.836 229.67 374.023 228.529 376.404 228.067C378.785 227.605 381.253 227.842 383.496 228.749C385.739 229.655 387.656 231.19 389.005 233.159C390.354 235.129 391.074 237.444 391.074 239.813C391.074 242.989 389.781 246.035 387.479 248.281C385.177 250.527 382.054 251.788 378.799 251.788Z" fill="#E6E6E6"/>
<path d="M533.707 249.59H402.682C402.288 249.596 401.897 249.526 401.531 249.383C401.165 249.24 400.832 249.028 400.551 248.758C400.27 248.489 400.047 248.167 399.895 247.813C399.742 247.458 399.664 247.078 399.664 246.693C399.664 246.309 399.742 245.928 399.895 245.574C400.047 245.219 400.27 244.898 400.551 244.628C400.832 244.358 401.165 244.146 401.531 244.003C401.897 243.86 402.288 243.79 402.682 243.796H533.707C534.101 243.79 534.492 243.86 534.858 244.003C535.224 244.146 535.557 244.358 535.838 244.628C536.118 244.898 536.341 245.219 536.494 245.574C536.646 245.928 536.724 246.309 536.724 246.693C536.724 247.078 536.646 247.458 536.494 247.813C536.341 248.167 536.118 248.489 535.838 248.758C535.557 249.028 535.224 249.24 534.858 249.383C534.492 249.526 534.101 249.596 533.707 249.59Z" fill="#E6E6E6"/>
<path d="M491.019 237.278H402.678C402.284 237.284 401.893 237.214 401.527 237.071C401.161 236.928 400.828 236.716 400.547 236.446C400.266 236.177 400.043 235.855 399.891 235.501C399.739 235.146 399.66 234.766 399.66 234.381C399.66 233.997 399.739 233.616 399.891 233.262C400.043 232.907 400.266 232.586 400.547 232.316C400.828 232.046 401.161 231.834 401.527 231.691C401.893 231.548 402.284 231.478 402.678 231.484H491.019C491.413 231.478 491.804 231.548 492.17 231.691C492.536 231.834 492.869 232.046 493.15 232.316C493.431 232.586 493.654 232.907 493.806 233.262C493.958 233.616 494.037 233.997 494.037 234.381C494.037 234.766 493.958 235.146 493.806 235.501C493.654 235.855 493.431 236.177 493.15 236.446C492.869 236.716 492.536 236.928 492.17 237.071C491.804 237.214 491.413 237.284 491.019 237.278Z" fill="#E6E6E6"/>
<path d="M551.829 310.231H351.765C349.895 310.229 348.103 309.503 346.781 308.214C345.459 306.924 344.715 305.175 344.713 303.351V282.348C344.715 280.524 345.459 278.775 346.781 277.486C348.103 276.196 349.895 275.47 351.765 275.468H551.829C553.699 275.47 555.492 276.196 556.814 277.486C558.136 278.775 558.879 280.524 558.882 282.348V303.352C558.879 305.176 558.136 306.924 556.814 308.214C555.492 309.504 553.699 310.23 551.829 310.232V310.231ZM351.765 276.188C350.092 276.19 348.488 276.839 347.305 277.993C346.122 279.147 345.457 280.712 345.455 282.344V303.347C345.457 304.979 346.122 306.544 347.305 307.698C348.488 308.852 350.092 309.501 351.765 309.503H551.829C553.502 309.501 555.106 308.852 556.289 307.698C557.472 306.544 558.137 304.979 558.139 303.347V282.348C558.138 280.716 557.473 279.151 556.29 277.996C555.107 276.842 553.503 276.193 551.829 276.191L351.765 276.188Z" fill="#CCCCCC"/>
<path d="M378.799 304.825C376.371 304.825 373.998 304.123 371.979 302.807C369.96 301.491 368.387 299.621 367.458 297.432C366.529 295.244 366.286 292.836 366.76 290.513C367.233 288.19 368.402 286.056 370.119 284.381C371.836 282.707 374.023 281.566 376.404 281.104C378.785 280.642 381.253 280.879 383.496 281.785C385.739 282.692 387.656 284.227 389.005 286.196C390.354 288.166 391.074 290.481 391.074 292.85C391.074 296.026 389.781 299.072 387.479 301.318C385.177 303.563 382.054 304.825 378.799 304.825Z" fill="#E6E6E6"/>
<path d="M533.707 302.627H402.682C402.288 302.633 401.897 302.563 401.531 302.42C401.165 302.278 400.832 302.065 400.551 301.795C400.27 301.526 400.047 301.204 399.895 300.85C399.742 300.495 399.664 300.115 399.664 299.73C399.664 299.346 399.742 298.965 399.895 298.611C400.047 298.256 400.27 297.935 400.551 297.665C400.832 297.396 401.165 297.183 401.531 297.04C401.897 296.898 402.288 296.827 402.682 296.833H533.707C534.101 296.827 534.492 296.898 534.858 297.04C535.224 297.183 535.557 297.396 535.838 297.665C536.118 297.935 536.341 298.256 536.494 298.611C536.646 298.965 536.724 299.346 536.724 299.73C536.724 300.115 536.646 300.495 536.494 300.85C536.341 301.204 536.118 301.526 535.838 301.795C535.557 302.065 535.224 302.278 534.858 302.42C534.492 302.563 534.101 302.633 533.707 302.627Z" fill="#E6E6E6"/>
<path d="M491.019 290.315H402.678C402.284 290.321 401.893 290.251 401.527 290.108C401.161 289.965 400.828 289.753 400.547 289.483C400.266 289.214 400.043 288.892 399.891 288.538C399.739 288.183 399.66 287.803 399.66 287.418C399.66 287.034 399.739 286.653 399.891 286.299C400.043 285.944 400.266 285.623 400.547 285.353C400.828 285.083 401.161 284.871 401.527 284.728C401.893 284.585 402.284 284.515 402.678 284.521H491.019C491.413 284.515 491.804 284.585 492.17 284.728C492.536 284.871 492.869 285.083 493.15 285.353C493.431 285.623 493.654 285.944 493.806 286.299C493.958 286.653 494.037 287.034 494.037 287.418C494.037 287.803 493.958 288.183 493.806 288.538C493.654 288.892 493.431 289.214 493.15 289.483C492.869 289.753 492.536 289.965 492.17 290.108C491.804 290.251 491.413 290.321 491.019 290.315Z" fill="#E6E6E6"/>
<path d="M551.829 364.046H351.765C349.895 364.044 348.103 363.318 346.781 362.029C345.459 360.739 344.715 358.99 344.713 357.166V336.163C344.715 334.339 345.459 332.591 346.781 331.301C348.103 330.011 349.895 329.285 351.765 329.283H551.829C553.699 329.285 555.492 330.011 556.814 331.301C558.136 332.591 558.879 334.339 558.882 336.163V357.167C558.879 358.991 558.136 360.74 556.814 362.029C555.492 363.319 553.699 364.045 551.829 364.047V364.046ZM351.765 330.003C350.092 330.005 348.488 330.654 347.305 331.808C346.122 332.962 345.457 334.527 345.455 336.159V357.162C345.457 358.794 346.122 360.359 347.305 361.513C348.488 362.667 350.092 363.316 351.765 363.318H551.829C553.502 363.316 555.106 362.667 556.289 361.513C557.472 360.359 558.137 358.794 558.139 357.162V336.163C558.138 334.531 557.473 332.966 556.29 331.811C555.107 330.657 553.503 330.008 551.829 330.006L351.765 330.003Z" fill="#CCCCCC"/>
<path d="M378.799 358.64C376.371 358.64 373.998 357.938 371.979 356.622C369.96 355.306 368.387 353.436 367.458 351.247C366.529 349.059 366.286 346.651 366.76 344.328C367.233 342.005 368.402 339.871 370.119 338.196C371.836 336.522 374.023 335.381 376.404 334.919C378.785 334.457 381.253 334.694 383.496 335.6C385.739 336.507 387.656 338.042 389.005 340.011C390.354 341.981 391.074 344.296 391.074 346.664C391.074 349.841 389.781 352.887 387.479 355.132C385.177 357.378 382.054 358.64 378.799 358.64Z" fill="#E6E6E6"/>
<path d="M533.707 356.442H402.682C402.288 356.448 401.897 356.378 401.531 356.235C401.165 356.092 400.832 355.88 400.551 355.61C400.27 355.341 400.047 355.019 399.895 354.665C399.742 354.31 399.664 353.93 399.664 353.545C399.664 353.161 399.742 352.78 399.895 352.426C400.047 352.071 400.27 351.75 400.551 351.48C400.832 351.21 401.165 350.998 401.531 350.855C401.897 350.712 402.288 350.642 402.682 350.648H533.707C534.101 350.642 534.492 350.712 534.858 350.855C535.224 350.998 535.557 351.21 535.838 351.48C536.118 351.75 536.341 352.071 536.494 352.426C536.646 352.78 536.724 353.161 536.724 353.545C536.724 353.93 536.646 354.31 536.494 354.665C536.341 355.019 536.118 355.341 535.838 355.61C535.557 355.88 535.224 356.092 534.858 356.235C534.492 356.378 534.101 356.448 533.707 356.442Z" fill="#E6E6E6"/>
<path d="M491.019 344.13H402.678C402.284 344.136 401.893 344.066 401.527 343.923C401.161 343.78 400.828 343.568 400.547 343.298C400.266 343.029 400.043 342.707 399.891 342.353C399.739 341.998 399.66 341.618 399.66 341.233C399.66 340.849 399.739 340.468 399.891 340.114C400.043 339.759 400.266 339.438 400.547 339.168C400.828 338.898 401.161 338.686 401.527 338.543C401.893 338.4 402.284 338.33 402.678 338.336H491.019C491.413 338.33 491.804 338.4 492.17 338.543C492.536 338.686 492.869 338.898 493.15 339.168C493.431 339.438 493.654 339.759 493.806 340.114C493.958 340.468 494.037 340.849 494.037 341.233C494.037 341.618 493.958 341.998 493.806 342.353C493.654 342.707 493.431 343.029 493.15 343.298C492.869 343.568 492.536 343.78 492.17 343.923C491.804 344.066 491.413 344.136 491.019 344.13Z" fill="#E6E6E6"/>
<path d="M551.03 417.082H350.966C349.096 417.08 347.304 416.355 345.981 415.065C344.659 413.775 343.916 412.026 343.913 410.202V389.2C343.916 387.375 344.659 385.627 345.981 384.337C347.304 383.047 349.096 382.321 350.966 382.319H551.03C552.9 382.321 554.692 383.047 556.014 384.337C557.336 385.627 558.08 387.375 558.082 389.2V410.203C558.08 412.027 557.336 413.776 556.014 415.065C554.692 416.355 552.9 417.081 551.03 417.083V417.082ZM350.966 383.039C349.293 383.041 347.689 383.69 346.506 384.844C345.323 385.998 344.658 387.563 344.656 389.195V410.198C344.658 411.83 345.323 413.395 346.506 414.549C347.689 415.703 349.293 416.352 350.966 416.354H551.03C552.703 416.352 554.307 415.703 555.49 414.549C556.673 413.395 557.338 411.83 557.34 410.198V389.2C557.339 387.567 556.673 386.002 555.49 384.848C554.307 383.693 552.703 383.044 551.03 383.042L350.966 383.039Z" fill="#CCCCCC"/>
<path d="M378 411.676C375.572 411.676 373.199 410.974 371.181 409.658C369.162 408.342 367.589 406.472 366.659 404.284C365.73 402.095 365.487 399.687 365.961 397.364C366.435 395.041 367.604 392.907 369.32 391.233C371.037 389.558 373.224 388.417 375.605 387.955C377.987 387.493 380.455 387.73 382.698 388.637C384.941 389.543 386.858 391.078 388.207 393.047C389.555 395.017 390.275 397.332 390.275 399.701C390.275 402.877 388.982 405.923 386.68 408.169C384.378 410.415 381.256 411.676 378 411.676Z" fill="#E6E6E6"/>
<path d="M532.908 409.478H401.883C401.489 409.484 401.098 409.414 400.732 409.271C400.366 409.128 400.033 408.916 399.752 408.646C399.471 408.377 399.248 408.055 399.096 407.701C398.944 407.346 398.865 406.966 398.865 406.581C398.865 406.197 398.944 405.816 399.096 405.462C399.248 405.107 399.471 404.786 399.752 404.516C400.033 404.246 400.366 404.034 400.732 403.891C401.098 403.748 401.489 403.678 401.883 403.684H532.908C533.302 403.678 533.693 403.748 534.059 403.891C534.425 404.034 534.758 404.246 535.039 404.516C535.32 404.786 535.543 405.107 535.695 405.462C535.847 405.816 535.926 406.197 535.926 406.581C535.926 406.966 535.847 407.346 535.695 407.701C535.543 408.055 535.32 408.377 535.039 408.646C534.758 408.916 534.425 409.128 534.059 409.271C533.693 409.414 533.302 409.484 532.908 409.478Z" fill="#E6E6E6"/>
<path d="M490.22 397.166H401.879C401.485 397.172 401.094 397.102 400.728 396.959C400.362 396.816 400.029 396.604 399.748 396.334C399.468 396.065 399.245 395.743 399.092 395.389C398.94 395.034 398.862 394.654 398.862 394.269C398.862 393.885 398.94 393.504 399.092 393.15C399.245 392.795 399.468 392.474 399.748 392.204C400.029 391.934 400.362 391.722 400.728 391.579C401.094 391.436 401.485 391.366 401.879 391.372H490.22C490.614 391.366 491.005 391.436 491.371 391.579C491.737 391.722 492.07 391.934 492.351 392.204C492.632 392.474 492.855 392.795 493.007 393.15C493.159 393.504 493.238 393.885 493.238 394.269C493.238 394.654 493.159 395.034 493.007 395.389C492.855 395.743 492.632 396.065 492.351 396.334C492.07 396.604 491.737 396.816 491.371 396.959C491.005 397.102 490.614 397.172 490.22 397.166Z" fill="#E6E6E6"/>
<path d="M451.795 148.476C478.287 148.476 499.762 127.525 499.762 101.68C499.762 75.8353 478.287 54.884 451.795 54.884C425.304 54.884 403.829 75.8353 403.829 101.68C403.829 127.525 425.304 148.476 451.795 148.476Z" fill="#6FA27A"/>
<path d="M514.936 458.886H387.058C386.943 458.886 386.833 458.842 386.752 458.763C386.671 458.683 386.625 458.576 386.625 458.464C386.625 458.353 386.671 458.245 386.752 458.166C386.833 458.087 386.943 458.043 387.058 458.043H514.936C515.05 458.043 515.16 458.087 515.241 458.166C515.322 458.245 515.368 458.353 515.368 458.464C515.368 458.576 515.322 458.683 515.241 458.763C515.16 458.842 515.05 458.886 514.936 458.886Z" fill="#CCCCCC"/>
<path d="M514.936 473.218H387.058C386.943 473.218 386.833 473.173 386.752 473.094C386.671 473.015 386.625 472.908 386.625 472.796C386.625 472.684 386.671 472.577 386.752 472.498C386.833 472.419 386.943 472.375 387.058 472.375H514.936C515.05 472.375 515.16 472.419 515.241 472.498C515.322 472.577 515.368 472.684 515.368 472.796C515.368 472.908 515.322 473.015 515.241 473.094C515.16 473.173 515.05 473.218 514.936 473.218Z" fill="#CCCCCC"/>
<path d="M514.936 487.549H387.058C386.943 487.549 386.833 487.505 386.752 487.426C386.671 487.346 386.625 487.239 386.625 487.127C386.625 487.016 386.671 486.908 386.752 486.829C386.833 486.75 386.943 486.706 387.058 486.706H514.936C515.05 486.706 515.16 486.75 515.241 486.829C515.322 486.908 515.368 487.016 515.368 487.127C515.368 487.239 515.322 487.346 515.241 487.426C515.16 487.505 515.05 487.549 514.936 487.549Z" fill="#CCCCCC"/>
<path d="M514.936 501.878H387.058C386.943 501.878 386.833 501.833 386.752 501.754C386.671 501.675 386.625 501.568 386.625 501.456C386.625 501.344 386.671 501.237 386.752 501.158C386.833 501.079 386.943 501.035 387.058 501.035H514.936C515.05 501.035 515.16 501.079 515.241 501.158C515.322 501.237 515.368 501.344 515.368 501.456C515.368 501.568 515.322 501.675 515.241 501.754C515.16 501.833 515.05 501.878 514.936 501.878Z" fill="#CCCCCC"/>
<path d="M431.626 516.207H419.099C418.526 516.206 417.977 515.984 417.572 515.589C417.167 515.194 416.94 514.658 416.939 514.1V488.393C416.939 487.833 417.166 487.297 417.571 486.901C417.976 486.505 418.526 486.282 419.099 486.282H431.627C432.2 486.282 432.749 486.505 433.154 486.9C433.559 487.295 433.787 487.83 433.787 488.389V514.096C433.787 514.373 433.732 514.647 433.623 514.903C433.515 515.159 433.356 515.392 433.155 515.588C432.954 515.784 432.716 515.94 432.453 516.046C432.191 516.152 431.91 516.207 431.626 516.207Z" fill="#F2F2F2"/>
<path d="M460.139 516.209H447.612C447.039 516.209 446.49 515.986 446.085 515.591C445.68 515.196 445.452 514.661 445.452 514.102V474.061C445.452 473.502 445.68 472.966 446.085 472.571C446.49 472.176 447.039 471.954 447.612 471.953H460.14C460.713 471.954 461.262 472.176 461.667 472.571C462.072 472.966 462.299 473.502 462.3 474.061V514.101C462.299 514.66 462.072 515.195 461.667 515.591C461.262 515.986 460.713 516.208 460.14 516.208L460.139 516.209Z" fill="#F2F2F2"/>
<path d="M489.517 516.208H476.99C476.417 516.207 475.868 515.985 475.464 515.59C475.059 515.195 474.831 514.659 474.83 514.1V460.15C474.831 459.592 475.059 459.056 475.464 458.661C475.868 458.266 476.417 458.044 476.99 458.043H489.519C490.091 458.044 490.64 458.266 491.045 458.661C491.45 459.056 491.678 459.592 491.678 460.15V514.1C491.678 514.658 491.45 515.194 491.045 515.589C490.64 515.984 490.091 516.206 489.519 516.207L489.517 516.208Z" fill="#F2F2F2"/>
<path d="M514.936 516.209H387.058C386.943 516.209 386.833 516.165 386.752 516.086C386.671 516.007 386.625 515.899 386.625 515.788C386.625 515.676 386.671 515.569 386.752 515.49C386.833 515.411 386.943 515.366 387.058 515.366H514.936C515.05 515.366 515.16 515.411 515.241 515.49C515.322 515.569 515.368 515.676 515.368 515.788C515.368 515.899 515.322 516.007 515.241 516.086C515.16 516.165 515.05 516.209 514.936 516.209Z" fill="#CCCCCC"/>
<path d="M450.345 126.638V121.783C446.166 121.538 442.839 120.379 440.365 118.305C437.89 116.231 436.581 113.375 436.437 109.737H443.516C443.542 110.548 443.745 111.345 444.111 112.073C444.478 112.802 444.999 113.446 445.641 113.962C446.999 114.994 448.633 115.624 450.348 115.777V104.173L448.193 103.62C445.296 103.007 442.601 101.7 440.351 99.8165C439.419 98.9628 438.685 97.9234 438.2 96.7688C437.715 95.6141 437.49 94.3712 437.541 93.1244C437.503 91.1158 438.079 89.1419 439.195 87.4538C440.337 85.7753 441.903 84.4113 443.741 83.4926C445.794 82.4591 448.04 81.8418 450.344 81.678V76.7181H453.572V81.6523C455.937 81.7488 458.253 82.3395 460.364 83.3845C462.195 84.2973 463.756 85.6527 464.897 87.3214C465.995 88.9619 466.592 90.8734 466.618 92.8325H459.651C459.595 92.1516 459.403 91.488 459.083 90.88C458.764 90.272 458.325 89.7315 457.791 89.2895C456.582 88.3433 455.112 87.7679 453.567 87.636V98.5795L455.37 99.0256C457.33 99.4934 459.23 100.176 461.033 101.059C462.771 101.891 464.284 103.11 465.448 104.619C466.636 106.266 467.235 108.249 467.153 110.262C467.194 111.769 466.896 113.267 466.28 114.65C465.664 116.033 464.745 117.267 463.588 118.266C461.211 120.366 457.871 121.538 453.567 121.783V126.638H450.345ZM453.573 115.75C455.275 115.61 456.893 114.97 458.214 113.913C458.773 113.464 459.221 112.899 459.526 112.258C459.831 111.618 459.985 110.919 459.976 110.213C460.005 109.562 459.859 108.916 459.552 108.338C459.245 107.76 458.789 107.271 458.227 106.919C456.792 106.045 455.222 105.403 453.578 105.017L453.573 115.75ZM450.345 97.7697V87.6662C448.834 87.8116 447.408 88.4176 446.269 89.3984C445.8 89.8175 445.426 90.3287 445.174 90.8985C444.921 91.4684 444.795 92.0839 444.803 92.7047C444.772 93.3506 444.913 93.9933 445.211 94.5704C445.51 95.1475 445.957 95.6394 446.508 95.9982C447.686 96.7774 448.98 97.3749 450.345 97.7697Z" fill="#F2F2F2"/>
</svg>
