<svg width="741" height="663" viewBox="0 0 741 663" fill="none" xmlns="http://www.w3.org/2000/svg">
<g clip-path="url(#clip0_4_81)">
<path d="M721.485 365.472C727.966 365.472 733.219 360.484 733.219 354.332C733.219 348.18 727.966 343.193 721.485 343.193C715.004 343.193 709.75 348.18 709.75 354.332C709.75 360.484 715.004 365.472 721.485 365.472Z" fill="#F2F2F2"/>
<path d="M178.5 368.215C177.545 368.85 176.454 369.28 175.305 369.472C174.156 369.665 172.976 369.615 171.849 369.328C170.723 369.041 169.676 368.523 168.782 367.81C167.889 367.097 167.172 366.207 166.68 365.203L138.461 367.915L145.294 355.518L171.044 354.843C172.877 354.171 174.905 354.16 176.745 354.813C178.586 355.466 180.11 356.737 181.029 358.385C181.948 360.033 182.198 361.944 181.732 363.756C181.266 365.568 180.116 367.154 178.5 368.215Z" fill="#FFB6B6"/>
<path d="M97.0719 380.415L34.8915 355.956C29.9649 354.012 26.0518 350.292 24.0109 345.613C21.9699 340.934 21.9677 335.677 24.0047 330.996C25.1356 328.406 26.8533 326.084 29.0359 324.194C31.2185 322.305 33.8125 320.895 36.6338 320.065C39.455 319.234 42.4342 319.003 45.36 319.388C48.2858 319.774 51.0863 320.766 53.5628 322.294L103.663 353.214L155.803 350.707L159.707 366.12L97.0719 380.415Z" fill="#B41A23"/>
<path d="M85.6171 643.362H95.5724L100.309 606.909L85.6153 606.91L85.6171 643.362Z" fill="#FFB6B6"/>
<path d="M82.2453 638.7L97.9831 637.808V644.209L112.945 654.018C113.684 654.503 114.241 655.199 114.534 656.005C114.827 656.81 114.841 657.684 114.573 658.498C114.306 659.312 113.772 660.024 113.048 660.529C112.325 661.034 111.45 661.306 110.552 661.306H91.8158L88.5863 654.975L87.3253 661.306H80.2609L82.2453 638.7Z" fill="#2F2E41"/>
<path d="M21.5643 643.362H31.5196L36.2558 606.909L21.5625 606.91L21.5643 643.362Z" fill="#FFB6B6"/>
<path d="M18.1927 638.7L33.9304 637.808V644.209L48.8928 654.018C49.6318 654.503 50.1885 655.199 50.4813 656.005C50.7742 656.81 50.788 657.684 50.5207 658.498C50.2535 659.312 49.7191 660.024 48.9957 660.529C48.2722 661.034 47.3976 661.306 46.4995 661.306H27.7631L24.5336 654.975L23.2726 661.306H16.2082L18.1927 638.7Z" fill="#2F2E41"/>
<path d="M71.8919 441.771L110.706 514.869C112.833 518.863 113.491 523.418 112.574 527.808C111.785 531.558 110.575 535.218 108.964 538.724L103.755 597.384L99.0885 615.784L82.2994 617.143C82.2994 617.143 83.5992 601.72 79.0499 580.093C74.5005 558.466 82.2994 526.968 82.2994 526.968C82.2994 526.968 67.9924 504.741 51.7267 493.619C35.461 482.497 71.8919 441.771 71.8919 441.771Z" fill="#2F2E41"/>
<path d="M30.2617 408.73C30.2617 408.73 22.2101 422.277 16.2617 429.569C10.766 436.172 8.10566 444.504 8.8148 452.892C9.3925 458.89 11.613 465.36 17.2546 470.484C17.2546 470.484 21.154 479.746 19.2043 484.69V528.553C19.2043 528.553 8.7639 580.344 17.8716 595.784L21.8039 630.442C21.8039 630.442 35.6059 634.119 36.2558 627.949C36.2558 627.949 38.0606 614.393 38.7557 610.066L39.2792 565.74C39.3867 559.981 41.2695 554.378 44.6951 549.623C47.403 545.844 50.111 539.975 50.472 531.629L71.8919 441.77L76.6604 410.381L30.2617 408.73Z" fill="#2F2E41"/>
<path d="M18.2732 360.453L26.5988 399.969L8.35867 440.338L76.4999 415.403L77.425 413.02L79.6793 404.904L77.0084 379.636C77.9465 377.781 91.3013 366.068 77.3341 345.475L62.2464 311.859L33.9863 311.451L33.869 311.562C27.2242 317.859 22.3231 325.618 19.602 334.148C16.881 342.678 16.4245 351.715 18.2732 360.453Z" fill="#B41A23"/>
<path d="M59.7145 476.601C58.7836 475.933 58.0182 475.079 57.4723 474.1C56.9265 473.121 56.6133 472.041 56.555 470.934C56.4967 469.828 56.6947 468.723 57.1349 467.697C57.5751 466.672 58.2469 465.75 59.103 464.997L47.7159 440.338L62.243 442.703L70.8292 465.758C72.0659 467.207 72.6998 469.036 72.6107 470.899C72.5215 472.762 71.7155 474.529 70.3455 475.866C68.9754 477.202 67.1365 478.015 65.1771 478.151C63.2177 478.286 61.2741 477.735 59.7145 476.601Z" fill="#FFB6B6"/>
<path d="M22.4707 406.788L27.8921 343.102C28.3276 338.054 30.8546 333.377 34.9187 330.096C38.9828 326.815 44.252 325.198 49.5703 325.6C52.5145 325.826 55.3702 326.665 57.9347 328.056C60.4991 329.448 62.7095 331.358 64.4087 333.651C66.108 335.945 67.2546 338.565 67.767 341.327C68.2794 344.088 68.1452 346.923 67.3737 349.63L51.7657 404.387L70.2941 450.718L56.0413 458.98L22.4707 406.788Z" fill="#B41A23"/>
<path d="M1.14514 313.481L70.1247 300.093C72.0243 294.079 75.6631 288.556 65.6169 279.164C64.0603 271.937 59.6102 265.565 53.2037 261.39C46.7971 257.215 38.934 255.564 31.27 256.782C15.437 255.445 6.54231 266.127 6.58823 280.465L1.14514 313.481Z" fill="#2F2E41"/>
<path d="M41.3687 304.436C54.3184 304.436 64.8162 294.471 64.8162 282.178C64.8162 269.885 54.3184 259.92 41.3687 259.92C28.419 259.92 17.9211 269.885 17.9211 282.178C17.9211 294.471 28.419 304.436 41.3687 304.436Z" fill="#FFB8B8"/>
<path d="M23.6924 263.557C26.8565 259.06 31.7649 255.932 37.3482 254.854L41.7699 253.996C47.399 252.904 53.2547 253.979 58.0489 256.985C62.843 259.991 66.1829 264.681 67.3338 270.025C64.1568 273.952 45.319 276.928 34.09 278.226C37.2346 288.997 49.3237 297.834 48.0159 304.384L3.79819 312.966L2.89414 308.769C-4.86364 291.06 5.9578 272.932 23.6924 263.557Z" fill="#2F2E41"/>
<path d="M0.953796 314.679L69.9334 301.291C71.833 295.277 75.4717 289.754 65.4255 280.361C63.869 273.134 59.4189 266.763 53.0123 262.588C46.6057 258.413 38.7426 256.761 31.0786 257.98C15.2456 256.642 6.35096 267.325 6.39689 281.663L0.953796 314.679Z" fill="#2F2E41"/>
<path d="M41.1773 305.634C54.127 305.634 64.6248 295.669 64.6248 283.376C64.6248 271.083 54.127 261.118 41.1773 261.118C28.2276 261.118 17.7298 271.083 17.7298 283.376C17.7298 295.669 28.2276 305.634 41.1773 305.634Z" fill="#FFB8B8"/>
<path d="M23.5004 264.755C26.6644 260.258 31.5729 257.129 37.1561 256.052L41.5778 255.194C47.2069 254.102 53.0626 255.177 57.8568 258.182C62.651 261.188 65.9908 265.879 67.1417 271.223C63.9647 275.15 45.1269 278.126 33.8979 279.424C37.0426 290.195 49.1316 299.032 47.8238 305.582L3.60612 314.164L2.70206 309.967C-5.05572 292.258 5.76574 274.13 23.5004 264.755Z" fill="#2F2E41"/>
<path d="M364.32 475.089H185.475C180.52 475.084 175.769 473.213 172.265 469.887C168.762 466.561 166.791 462.051 166.785 457.347V235.774C166.791 231.07 168.762 226.561 172.265 223.235C175.769 219.909 180.52 218.038 185.475 218.032H364.32C369.275 218.038 374.026 219.909 377.53 223.235C381.033 226.561 383.004 231.07 383.01 235.774V457.347C383.004 462.051 381.033 466.561 377.53 469.887C374.026 473.213 369.275 475.084 364.32 475.089Z" fill="#F0F0F0"/>
<path d="M364.32 475.946H185.475C180.281 475.94 175.301 473.979 171.628 470.492C167.955 467.005 165.888 462.278 165.883 457.347V235.774C165.889 230.843 167.955 226.116 171.628 222.629C175.301 219.143 180.281 217.181 185.475 217.176H364.32C369.514 217.181 374.494 219.142 378.167 222.629C381.841 226.116 383.907 230.843 383.913 235.774V457.347C383.907 462.278 381.841 467.005 378.168 470.492C374.494 473.979 369.514 475.94 364.32 475.946ZM185.475 218.889C180.759 218.894 176.238 220.675 172.903 223.84C169.569 227.006 167.693 231.298 167.688 235.774V457.347C167.693 461.824 169.569 466.115 172.903 469.281C176.238 472.446 180.759 474.227 185.475 474.232H364.32C369.036 474.227 373.557 472.447 376.892 469.281C380.226 466.116 382.102 461.824 382.107 457.347V235.774C382.102 231.298 380.226 227.006 376.892 223.84C373.557 220.675 369.036 218.894 364.32 218.889H185.475Z" fill="#BB8588"/>
<path d="M654.866 475.089H476.021C471.066 475.084 466.315 473.213 462.811 469.887C459.307 466.561 457.337 462.051 457.331 457.347V235.774C457.337 231.07 459.308 226.561 462.811 223.235C466.315 219.909 471.066 218.038 476.021 218.032H654.866C659.821 218.038 664.572 219.909 668.075 223.235C671.579 226.561 673.55 231.07 673.556 235.774V457.347C673.55 462.051 671.579 466.561 668.076 469.887C664.572 473.213 659.821 475.084 654.866 475.089Z" fill="#F0F0F0"/>
<path d="M665.067 214.002L665.048 214.018C663.318 212.347 660.978 211.373 658.512 211.296C656.046 211.218 653.643 212.045 651.801 213.604C649.959 215.163 648.819 217.334 648.618 219.669C648.417 222.003 649.17 224.322 650.72 226.144L650.702 226.16L663.509 239.796L677.874 227.638C679.779 226.026 680.931 223.761 681.077 221.343C681.223 218.924 680.351 216.55 678.653 214.741C676.954 212.933 674.569 211.839 672.021 211.701C669.473 211.562 666.971 212.39 665.067 214.002Z" fill="#D1D3D4"/>
<path d="M214.995 356.683C214.695 356.053 214.542 355.369 214.547 354.679C214.551 353.988 214.712 353.306 215.019 352.679L225.74 330.799C226.797 327.411 229.227 324.558 232.497 322.867C235.767 321.176 239.609 320.785 243.183 321.779C246.756 322.773 249.768 325.072 251.559 328.171C253.349 331.269 253.773 334.916 252.736 338.311L249.153 362.28C249.05 362.964 248.794 363.619 248.401 364.2C248.008 364.782 247.487 365.276 246.875 365.649C246.263 366.023 245.573 366.266 244.852 366.364C244.132 366.461 243.397 366.41 242.699 366.214L218.173 359.315C217.475 359.12 216.83 358.783 216.281 358.328C215.733 357.874 215.294 357.313 214.995 356.683Z" fill="#3F3D56"/>
<path d="M331.622 345.767L307.096 352.665C306.398 352.862 305.663 352.913 304.943 352.815C304.222 352.718 303.532 352.474 302.92 352.101C302.308 351.728 301.787 351.233 301.394 350.652C301.001 350.07 300.745 349.415 300.642 348.731L297.059 324.762C296.022 321.368 296.446 317.721 298.236 314.622C300.027 311.523 303.039 309.225 306.612 308.231C310.186 307.236 314.028 307.628 317.298 309.319C320.568 311.01 322.998 313.862 324.055 317.251L334.776 339.131C335.083 339.757 335.244 340.439 335.248 341.13C335.252 341.821 335.099 342.505 334.8 343.135C334.5 343.764 334.062 344.326 333.513 344.78C332.965 345.234 332.32 345.571 331.622 345.767Z" fill="#3F3D56"/>
<path d="M235.135 326.228L254.369 312.949L285.843 304.649L312.072 309.629L313.614 323.387C315.489 340.122 314.675 357.031 311.198 373.533L310.559 386.251L243.004 388.472L236.01 376.853C236.01 376.853 220.272 361.915 232.512 345.316L235.135 326.228Z" fill="#3F3D56"/>
<path d="M607.096 300.068V314.824L605.578 332.851C605.578 332.851 605.098 348.594 604.517 361.011C604.167 368.559 603.772 374.877 603.429 375.693C603.006 376.693 603.106 379.419 603.35 382.282C603.636 385.594 604.109 389.089 604.188 390.259C604.338 392.442 603.12 401.819 603.12 401.819C603.12 401.819 601.759 425.335 599.782 427.211C597.805 429.088 599.782 434.426 599.782 434.426C590.513 440.914 578.807 432.985 578.807 432.985C581.393 429.075 577.288 402.384 577.288 402.384C577.288 402.384 576.687 393.271 575.469 390.823C574.251 388.375 573.943 373.082 573.943 373.082V350.43C573.943 350.43 570.748 345.792 570.297 343.63C569.845 341.467 570.297 333.824 570.297 333.824L566.958 323.148L564.673 331.512C564.673 331.512 558.756 354.884 557.689 357.768C557.109 359.695 557.324 361.759 558.291 363.541C558.291 363.541 559.816 367.988 558.291 370.028C557.343 371.306 556.617 372.721 556.142 374.217C556.142 374.217 555.36 382.731 553.992 385.778C552.624 388.824 551.413 392.578 551.413 392.578C551.413 392.578 551.736 398.331 550.368 399.63C548.999 400.929 548.548 407.423 548.548 407.423C548.548 407.423 548.849 414.774 547.022 417.372C545.195 419.969 545.195 434.685 545.195 434.685C542.027 436.615 538.376 437.711 534.616 437.863C530.855 438.015 527.119 437.216 523.79 435.549C523.79 435.549 525.596 433.944 524.227 426.463C522.859 418.983 525.209 398.616 525.209 398.616C525.209 398.616 524.908 393.448 526.426 391.136C527.945 388.824 525.66 384.356 526.269 382.337C526.878 380.317 528.705 369.348 528.705 369.348C528.705 369.348 527.945 342.372 527.945 340.93C527.765 338.364 527.034 335.86 525.796 333.572C524.428 331.267 525.796 314.532 525.796 314.532C525.796 314.532 529.02 305.882 527.945 304.005C526.871 302.128 528.662 298.81 528.662 298.81C528.662 298.81 526.992 294.913 528.662 294.192C530.331 293.471 530.639 290.588 530.639 290.588L531.799 276.593C531.799 276.593 532.236 270.242 533.626 269.956C535.016 269.671 534.407 267.222 535.775 265.488C536.442 264.316 536.902 263.048 537.136 261.735C537.33 260.932 537.509 260.096 537.659 259.293C538.089 257.117 538.354 255.24 538.354 255.24C547.323 262.313 594.481 257.355 594.531 257.355C597.526 257.974 601.086 267.841 603.658 276.444C605.944 284.13 607.101 292.08 607.096 300.068Z" fill="#3F3D56"/>
<path d="M123.157 663H149.352C149.74 662.332 150.101 661.646 150.436 660.952C153.45 654.826 154.723 647.988 155.942 641.287L157.918 630.405C151.6 634.767 145.284 639.125 138.972 643.481C136.914 644.903 134.811 646.386 132.834 647.988C128.672 651.338 125.08 655.211 123.672 660.13C123.6 660.404 123.528 660.678 123.473 660.952C123.323 661.628 123.218 662.312 123.157 663Z" fill="#F0F0F0"/>
<path d="M119.484 660.952C119.482 660.995 119.485 661.038 119.493 661.081C119.58 661.735 119.744 662.379 119.98 663H131.742C132.112 662.342 132.425 661.657 132.68 660.952C133.037 660.011 133.294 659.038 133.447 658.047C133.838 654.685 133.631 651.285 132.834 647.988C132.608 646.917 132.365 645.837 132.121 644.775L130.731 638.708L123.771 649.325C121.442 652.881 119.023 656.796 119.484 660.952Z" fill="#F0F0F0"/>
<path d="M-2.05362e-05 661.972C-0.000629906 662.106 0.0266681 662.239 0.0803192 662.364C0.13397 662.488 0.212933 662.602 0.312675 662.697C0.412417 662.793 0.530992 662.868 0.661636 662.92C0.79228 662.972 0.932425 662.999 1.07408 663H166.529C166.815 663 167.09 662.892 167.292 662.7C167.494 662.508 167.608 662.248 167.608 661.976C167.608 661.704 167.494 661.444 167.292 661.252C167.09 661.06 166.815 660.952 166.529 660.952H1.07408C0.789401 660.953 0.516571 661.06 0.315278 661.251C0.113986 661.443 0.000618396 661.702 -2.05362e-05 661.972Z" fill="#CACACA"/>
<path d="M271.733 502.511C289.586 502.511 304.058 488.773 304.058 471.827C304.058 454.88 289.586 441.142 271.733 441.142C253.881 441.142 239.408 454.88 239.408 471.827C239.408 488.773 253.881 502.511 271.733 502.511Z" fill="#BB8588"/>
<path d="M267.323 487.797C266.765 487.797 266.215 487.673 265.715 487.436C265.216 487.199 264.782 486.855 264.447 486.431L255.628 475.269C255.344 474.911 255.138 474.502 255.02 474.068C254.902 473.633 254.876 473.181 254.942 472.737C255.009 472.293 255.167 471.865 255.407 471.479C255.648 471.093 255.967 470.756 256.345 470.487C256.723 470.218 257.153 470.022 257.611 469.911C258.069 469.799 258.545 469.775 259.013 469.839C259.481 469.903 259.931 470.053 260.337 470.282C260.744 470.511 261.099 470.814 261.382 471.173L267.151 478.475L281.969 457.376C282.23 457.001 282.567 456.68 282.959 456.429C283.352 456.178 283.793 456.003 284.257 455.914C284.72 455.826 285.198 455.825 285.662 455.911C286.127 455.998 286.568 456.171 286.962 456.42C287.356 456.669 287.694 456.99 287.957 457.363C288.219 457.737 288.402 458.156 288.494 458.596C288.586 459.037 288.586 459.49 288.493 459.931C288.4 460.371 288.217 460.79 287.953 461.163L270.316 486.277C269.996 486.731 269.567 487.106 269.064 487.37C268.561 487.634 267.998 487.78 267.423 487.795C267.39 487.796 267.357 487.797 267.323 487.797Z" fill="white"/>
<path d="M384.815 564.564C391.296 564.564 396.55 559.576 396.55 553.424C396.55 547.272 391.296 542.285 384.815 542.285C378.335 542.285 373.081 547.272 373.081 553.424C373.081 559.576 378.335 564.564 384.815 564.564Z" fill="#F2F2F2"/>
<path d="M477.688 564.564C484.169 564.564 489.423 559.576 489.423 553.424C489.423 547.272 484.169 542.285 477.688 542.285C471.208 542.285 465.954 547.272 465.954 553.424C465.954 559.576 471.208 564.564 477.688 564.564Z" fill="#F2F2F2"/>
<path d="M428.14 564.564C434.621 564.564 439.875 559.576 439.875 553.424C439.875 547.272 434.621 542.285 428.14 542.285C421.66 542.285 416.406 547.272 416.406 553.424C416.406 559.576 421.66 564.564 428.14 564.564Z" fill="#F2F2F2"/>
</g>
<path d="M82.28 128.485C83.2133 128.485 84.0067 128.637 84.66 128.94C85.3133 129.243 85.7917 129.523 86.095 129.78C86.865 130.41 87.3317 129.99 87.495 128.52H88.3C88.2533 129.173 88.2183 129.955 88.195 130.865C88.1717 131.752 88.16 132.953 88.16 134.47H87.355C87.215 133.607 86.97 132.767 86.62 131.95C86.2933 131.133 85.8033 130.468 85.15 129.955C84.4967 129.418 83.645 129.15 82.595 129.15C81.7783 129.15 81.09 129.383 80.53 129.85C79.9933 130.293 79.725 130.958 79.725 131.845C79.725 132.545 79.935 133.152 80.355 133.665C80.775 134.155 81.3233 134.622 82 135.065C82.6767 135.485 83.4117 135.952 84.205 136.465C85.0917 137.025 85.8967 137.597 86.62 138.18C87.3433 138.763 87.915 139.405 88.335 140.105C88.7783 140.805 89 141.633 89 142.59C89 143.663 88.72 144.562 88.16 145.285C87.6 146.008 86.865 146.557 85.955 146.93C85.0683 147.303 84.0883 147.49 83.015 147.49C82.5017 147.49 82.0117 147.443 81.545 147.35C81.1017 147.28 80.67 147.163 80.25 147C80.0167 146.883 79.7717 146.743 79.515 146.58C79.2817 146.417 79.0483 146.242 78.815 146.055C78.5817 145.868 78.3717 145.88 78.185 146.09C77.9983 146.277 77.8583 146.662 77.765 147.245H76.96C77.0067 146.498 77.0417 145.588 77.065 144.515C77.0883 143.442 77.1 142.018 77.1 140.245H77.905C78.0683 141.552 78.3017 142.695 78.605 143.675C78.9083 144.655 79.3867 145.425 80.04 145.985C80.6933 146.522 81.6033 146.79 82.77 146.79C83.2367 146.79 83.7033 146.685 84.17 146.475C84.66 146.265 85.0683 145.915 85.395 145.425C85.7217 144.935 85.885 144.282 85.885 143.465C85.885 142.438 85.5117 141.598 84.765 140.945C84.0183 140.292 83.0733 139.603 81.93 138.88C81.09 138.343 80.2967 137.807 79.55 137.27C78.8267 136.733 78.2317 136.127 77.765 135.45C77.3217 134.773 77.1 133.957 77.1 133C77.1 131.95 77.3333 131.098 77.8 130.445C78.29 129.768 78.9317 129.278 79.725 128.975C80.5183 128.648 81.37 128.485 82.28 128.485ZM107.559 128.59V143.22C107.559 144.27 107.746 145.052 108.119 145.565C108.516 146.055 109.216 146.3 110.219 146.3V147.035C109.496 146.965 108.773 146.93 108.049 146.93C107.373 146.93 106.719 146.965 106.089 147.035C105.483 147.105 104.923 147.233 104.409 147.42V143.29C103.826 144.807 102.998 145.892 101.924 146.545C100.874 147.175 99.7893 147.49 98.6693 147.49C97.8526 147.49 97.141 147.373 96.5343 147.14C95.9276 146.907 95.426 146.58 95.0293 146.16C94.586 145.693 94.2826 145.087 94.1193 144.34C93.956 143.593 93.8743 142.672 93.8743 141.575V132.79C93.8743 131.74 93.6876 130.97 93.3143 130.48C92.941 129.967 92.241 129.71 91.2143 129.71V128.975C91.961 129.045 92.6843 129.08 93.3843 129.08C94.061 129.08 94.7026 129.045 95.3093 128.975C95.9393 128.882 96.511 128.753 97.0243 128.59V142.345C97.0243 143.068 97.071 143.733 97.1643 144.34C97.2576 144.947 97.491 145.437 97.8643 145.81C98.2376 146.183 98.8443 146.37 99.6843 146.37C100.594 146.37 101.399 146.09 102.099 145.53C102.823 144.97 103.383 144.212 103.779 143.255C104.199 142.298 104.409 141.225 104.409 140.035V132.79C104.409 131.74 104.223 130.97 103.849 130.48C103.476 129.967 102.776 129.71 101.749 129.71V128.975C102.496 129.045 103.219 129.08 103.919 129.08C104.596 129.08 105.238 129.045 105.844 128.975C106.474 128.882 107.046 128.753 107.559 128.59ZM116.976 147.245C116.02 147.245 115.191 147.07 114.491 146.72C113.791 146.347 113.255 145.833 112.881 145.18C112.531 144.527 112.356 143.768 112.356 142.905C112.356 141.878 112.59 141.038 113.056 140.385C113.546 139.732 114.165 139.207 114.911 138.81C115.658 138.413 116.44 138.087 117.256 137.83C118.096 137.55 118.89 137.293 119.636 137.06C120.383 136.803 120.99 136.512 121.456 136.185C121.946 135.858 122.191 135.427 122.191 134.89V132.72C122.191 131.74 122.04 130.993 121.736 130.48C121.456 129.967 121.071 129.628 120.581 129.465C120.091 129.278 119.543 129.185 118.936 129.185C118.353 129.185 117.723 129.267 117.046 129.43C116.393 129.593 115.868 129.932 115.471 130.445C115.915 130.538 116.3 130.772 116.626 131.145C116.953 131.518 117.116 131.997 117.116 132.58C117.116 133.163 116.93 133.63 116.556 133.98C116.183 134.307 115.705 134.47 115.121 134.47C114.445 134.47 113.943 134.26 113.616 133.84C113.313 133.397 113.161 132.907 113.161 132.37C113.161 131.763 113.313 131.273 113.616 130.9C113.92 130.527 114.305 130.177 114.771 129.85C115.308 129.477 115.996 129.162 116.836 128.905C117.7 128.625 118.668 128.485 119.741 128.485C120.698 128.485 121.515 128.602 122.191 128.835C122.868 129.045 123.428 129.36 123.871 129.78C124.478 130.34 124.875 131.028 125.061 131.845C125.248 132.638 125.341 133.595 125.341 134.715V144.445C125.341 145.028 125.423 145.448 125.586 145.705C125.773 145.962 126.053 146.09 126.426 146.09C126.683 146.09 126.928 146.032 127.161 145.915C127.395 145.798 127.675 145.612 128.001 145.355L128.386 145.95C127.896 146.323 127.43 146.638 126.986 146.895C126.543 147.128 125.948 147.245 125.201 147.245C124.525 147.245 123.965 147.128 123.521 146.895C123.078 146.662 122.74 146.323 122.506 145.88C122.296 145.413 122.191 144.83 122.191 144.13C121.561 145.18 120.803 145.962 119.916 146.475C119.053 146.988 118.073 147.245 116.976 147.245ZM118.236 145.845C119.006 145.845 119.718 145.623 120.371 145.18C121.048 144.737 121.655 144.072 122.191 143.185V136.325C121.911 136.722 121.503 137.06 120.966 137.34C120.43 137.597 119.846 137.865 119.216 138.145C118.586 138.402 117.98 138.717 117.396 139.09C116.836 139.44 116.37 139.907 115.996 140.49C115.623 141.073 115.436 141.832 115.436 142.765C115.436 143.698 115.681 144.445 116.171 145.005C116.685 145.565 117.373 145.845 118.236 145.845ZM142.249 119.56V143.745C142.249 144.725 142.447 145.39 142.844 145.74C143.264 146.09 143.952 146.265 144.909 146.265V147C144.512 146.977 143.906 146.953 143.089 146.93C142.296 146.883 141.491 146.86 140.674 146.86C139.881 146.86 139.076 146.883 138.259 146.93C137.442 146.953 136.836 146.977 136.439 147V146.265C137.396 146.265 138.072 146.09 138.469 145.74C138.889 145.39 139.099 144.725 139.099 143.745V123.76C139.099 122.71 138.912 121.94 138.539 121.45C138.166 120.937 137.466 120.68 136.439 120.68V119.945C137.186 120.015 137.909 120.05 138.609 120.05C139.286 120.05 139.927 120.015 140.534 119.945C141.164 119.852 141.736 119.723 142.249 119.56ZM154.932 128.485C156.425 128.485 157.767 128.812 158.957 129.465C160.147 130.118 161.092 131.145 161.792 132.545C162.515 133.945 162.877 135.765 162.877 138.005C162.877 140.245 162.515 142.065 161.792 143.465C161.092 144.842 160.147 145.857 158.957 146.51C157.767 147.163 156.425 147.49 154.932 147.49C153.462 147.49 152.12 147.163 150.907 146.51C149.717 145.857 148.76 144.842 148.037 143.465C147.337 142.065 146.987 140.245 146.987 138.005C146.987 135.765 147.337 133.945 148.037 132.545C148.76 131.145 149.717 130.118 150.907 129.465C152.12 128.812 153.462 128.485 154.932 128.485ZM154.932 129.185C153.602 129.185 152.505 129.873 151.642 131.25C150.802 132.627 150.382 134.878 150.382 138.005C150.382 141.132 150.802 143.383 151.642 144.76C152.505 146.113 153.602 146.79 154.932 146.79C156.262 146.79 157.347 146.113 158.187 144.76C159.05 143.383 159.482 141.132 159.482 138.005C159.482 134.878 159.05 132.627 158.187 131.25C157.347 129.873 156.262 129.185 154.932 129.185ZM163.607 153.58V153.055C165.053 152.985 166.138 152.355 166.862 151.165C167.585 149.998 167.947 148.388 167.947 146.335V132.79C167.947 131.74 167.76 130.97 167.387 130.48C167.013 129.967 166.313 129.71 165.287 129.71V128.975C166.033 129.045 166.757 129.08 167.457 129.08C168.133 129.08 168.775 129.045 169.382 128.975C170.012 128.882 170.583 128.753 171.097 128.59V142.975C171.097 144.142 171.015 145.25 170.852 146.3C170.688 147.35 170.42 148.307 170.047 149.17C169.673 150.033 169.183 150.792 168.577 151.445C167.993 152.075 167.27 152.588 166.407 152.985C165.567 153.382 164.633 153.58 163.607 153.58ZM169.207 120.225C169.813 120.225 170.338 120.447 170.782 120.89C171.225 121.333 171.447 121.858 171.447 122.465C171.447 123.072 171.225 123.597 170.782 124.04C170.338 124.483 169.813 124.705 169.207 124.705C168.6 124.705 168.075 124.483 167.632 124.04C167.188 123.597 166.967 123.072 166.967 122.465C166.967 121.858 167.188 121.333 167.632 120.89C168.075 120.447 168.6 120.225 169.207 120.225ZM179.833 147.245C178.876 147.245 178.048 147.07 177.348 146.72C176.648 146.347 176.111 145.833 175.738 145.18C175.388 144.527 175.213 143.768 175.213 142.905C175.213 141.878 175.446 141.038 175.913 140.385C176.403 139.732 177.021 139.207 177.768 138.81C178.514 138.413 179.296 138.087 180.113 137.83C180.953 137.55 181.746 137.293 182.493 137.06C183.239 136.803 183.846 136.512 184.313 136.185C184.803 135.858 185.048 135.427 185.048 134.89V132.72C185.048 131.74 184.896 130.993 184.593 130.48C184.313 129.967 183.928 129.628 183.438 129.465C182.948 129.278 182.399 129.185 181.793 129.185C181.209 129.185 180.579 129.267 179.903 129.43C179.249 129.593 178.724 129.932 178.328 130.445C178.771 130.538 179.156 130.772 179.483 131.145C179.809 131.518 179.973 131.997 179.973 132.58C179.973 133.163 179.786 133.63 179.413 133.98C179.039 134.307 178.561 134.47 177.978 134.47C177.301 134.47 176.799 134.26 176.473 133.84C176.169 133.397 176.018 132.907 176.018 132.37C176.018 131.763 176.169 131.273 176.473 130.9C176.776 130.527 177.161 130.177 177.628 129.85C178.164 129.477 178.853 129.162 179.693 128.905C180.556 128.625 181.524 128.485 182.598 128.485C183.554 128.485 184.371 128.602 185.048 128.835C185.724 129.045 186.284 129.36 186.728 129.78C187.334 130.34 187.731 131.028 187.918 131.845C188.104 132.638 188.198 133.595 188.198 134.715V144.445C188.198 145.028 188.279 145.448 188.443 145.705C188.629 145.962 188.909 146.09 189.283 146.09C189.539 146.09 189.784 146.032 190.018 145.915C190.251 145.798 190.531 145.612 190.858 145.355L191.243 145.95C190.753 146.323 190.286 146.638 189.843 146.895C189.399 147.128 188.804 147.245 188.058 147.245C187.381 147.245 186.821 147.128 186.378 146.895C185.934 146.662 185.596 146.323 185.363 145.88C185.153 145.413 185.048 144.83 185.048 144.13C184.418 145.18 183.659 145.962 182.773 146.475C181.909 146.988 180.929 147.245 179.833 147.245ZM181.093 145.845C181.863 145.845 182.574 145.623 183.228 145.18C183.904 144.737 184.511 144.072 185.048 143.185V136.325C184.768 136.722 184.359 137.06 183.823 137.34C183.286 137.597 182.703 137.865 182.073 138.145C181.443 138.402 180.836 138.717 180.253 139.09C179.693 139.44 179.226 139.907 178.853 140.49C178.479 141.073 178.293 141.832 178.293 142.765C178.293 143.698 178.538 144.445 179.028 145.005C179.541 145.565 180.229 145.845 181.093 145.845ZM216.525 119.56V143.185C216.525 144.235 216.712 145.017 217.085 145.53C217.482 146.02 218.182 146.265 219.185 146.265V147C218.462 146.93 217.738 146.895 217.015 146.895C216.338 146.895 215.685 146.93 215.055 147C214.448 147.07 213.888 147.198 213.375 147.385V123.76C213.375 122.71 213.188 121.94 212.815 121.45C212.442 120.937 211.742 120.68 210.715 120.68V119.945C211.462 120.015 212.185 120.05 212.885 120.05C213.562 120.05 214.203 120.015 214.81 119.945C215.44 119.852 216.012 119.723 216.525 119.56ZM209.175 128.485C210.202 128.485 211.158 128.73 212.045 129.22C212.955 129.71 213.562 130.55 213.865 131.74L213.41 132.09C213.083 131.11 212.57 130.398 211.87 129.955C211.193 129.512 210.388 129.29 209.455 129.29C208.078 129.29 206.923 130.002 205.99 131.425C205.08 132.848 204.637 135.042 204.66 138.005C204.66 139.895 204.835 141.47 205.185 142.73C205.558 143.967 206.095 144.9 206.795 145.53C207.518 146.137 208.393 146.44 209.42 146.44C210.4 146.44 211.287 146.02 212.08 145.18C212.873 144.34 213.352 143.103 213.515 141.47L213.935 141.96C213.748 143.733 213.177 145.098 212.22 146.055C211.287 147.012 210.015 147.49 208.405 147.49C206.958 147.49 205.687 147.14 204.59 146.44C203.517 145.74 202.688 144.69 202.105 143.29C201.545 141.89 201.265 140.128 201.265 138.005C201.265 135.882 201.627 134.12 202.35 132.72C203.097 131.297 204.065 130.235 205.255 129.535C206.468 128.835 207.775 128.485 209.175 128.485ZM229.442 128.485C231.495 128.485 233.094 129.115 234.237 130.375C235.404 131.612 235.987 133.548 235.987 136.185H223.632L223.597 135.52H232.627C232.674 134.377 232.58 133.327 232.347 132.37C232.114 131.39 231.74 130.608 231.227 130.025C230.737 129.442 230.095 129.15 229.302 129.15C228.229 129.15 227.272 129.687 226.432 130.76C225.615 131.833 225.125 133.537 224.962 135.87L225.067 136.01C225.02 136.36 224.985 136.745 224.962 137.165C224.939 137.585 224.927 138.005 224.927 138.425C224.927 140.012 225.184 141.377 225.697 142.52C226.21 143.663 226.875 144.538 227.692 145.145C228.532 145.728 229.395 146.02 230.282 146.02C230.982 146.02 231.647 145.915 232.277 145.705C232.907 145.472 233.49 145.098 234.027 144.585C234.564 144.072 235.03 143.383 235.427 142.52L236.127 142.8C235.87 143.57 235.45 144.317 234.867 145.04C234.284 145.763 233.549 146.358 232.662 146.825C231.775 147.268 230.749 147.49 229.582 147.49C227.902 147.49 226.455 147.105 225.242 146.335C224.052 145.565 223.13 144.503 222.477 143.15C221.847 141.773 221.532 140.198 221.532 138.425C221.532 136.372 221.859 134.61 222.512 133.14C223.165 131.647 224.087 130.503 225.277 129.71C226.467 128.893 227.855 128.485 229.442 128.485ZM258.243 128.485C258.873 128.485 259.421 128.613 259.888 128.87C260.378 129.127 260.751 129.465 261.008 129.885C261.288 130.282 261.428 130.737 261.428 131.25C261.428 131.833 261.241 132.347 260.868 132.79C260.518 133.233 260.039 133.455 259.433 133.455C258.943 133.455 258.511 133.303 258.138 133C257.764 132.673 257.578 132.218 257.578 131.635C257.578 131.192 257.694 130.818 257.928 130.515C258.184 130.188 258.464 129.932 258.768 129.745C258.604 129.512 258.359 129.395 258.033 129.395C257.309 129.395 256.644 129.617 256.038 130.06C255.431 130.48 254.918 131.028 254.498 131.705C254.078 132.382 253.751 133.105 253.518 133.875C253.284 134.622 253.168 135.322 253.168 135.975V143.395C253.168 144.538 253.494 145.308 254.148 145.705C254.824 146.078 255.734 146.265 256.878 146.265V147C256.341 146.977 255.583 146.953 254.603 146.93C253.623 146.883 252.584 146.86 251.488 146.86C250.694 146.86 249.901 146.883 249.108 146.93C248.338 146.953 247.754 146.977 247.358 147V146.265C248.314 146.265 248.991 146.09 249.388 145.74C249.808 145.39 250.018 144.725 250.018 143.745V132.79C250.018 131.74 249.831 130.97 249.458 130.48C249.084 129.967 248.384 129.71 247.358 129.71V128.975C248.104 129.045 248.828 129.08 249.528 129.08C250.204 129.08 250.846 129.045 251.453 128.975C252.083 128.882 252.654 128.753 253.168 128.59V132.965C253.424 132.288 253.786 131.612 254.253 130.935C254.743 130.235 255.326 129.652 256.003 129.185C256.679 128.718 257.426 128.485 258.243 128.485ZM270.835 128.485C272.328 128.485 273.67 128.812 274.86 129.465C276.05 130.118 276.995 131.145 277.695 132.545C278.418 133.945 278.78 135.765 278.78 138.005C278.78 140.245 278.418 142.065 277.695 143.465C276.995 144.842 276.05 145.857 274.86 146.51C273.67 147.163 272.328 147.49 270.835 147.49C269.365 147.49 268.023 147.163 266.81 146.51C265.62 145.857 264.663 144.842 263.94 143.465C263.24 142.065 262.89 140.245 262.89 138.005C262.89 135.765 263.24 133.945 263.94 132.545C264.663 131.145 265.62 130.118 266.81 129.465C268.023 128.812 269.365 128.485 270.835 128.485ZM270.835 129.185C269.505 129.185 268.408 129.873 267.545 131.25C266.705 132.627 266.285 134.878 266.285 138.005C266.285 141.132 266.705 143.383 267.545 144.76C268.408 146.113 269.505 146.79 270.835 146.79C272.165 146.79 273.25 146.113 274.09 144.76C274.953 143.383 275.385 141.132 275.385 138.005C275.385 134.878 274.953 132.627 274.09 131.25C273.25 129.873 272.165 129.185 270.835 129.185ZM297.325 128.59V143.22C297.325 144.27 297.512 145.052 297.885 145.565C298.282 146.055 298.982 146.3 299.985 146.3V147.035C299.262 146.965 298.538 146.93 297.815 146.93C297.138 146.93 296.485 146.965 295.855 147.035C295.248 147.105 294.688 147.233 294.175 147.42V143.29C293.592 144.807 292.763 145.892 291.69 146.545C290.64 147.175 289.555 147.49 288.435 147.49C287.618 147.49 286.907 147.373 286.3 147.14C285.693 146.907 285.192 146.58 284.795 146.16C284.352 145.693 284.048 145.087 283.885 144.34C283.722 143.593 283.64 142.672 283.64 141.575V132.79C283.64 131.74 283.453 130.97 283.08 130.48C282.707 129.967 282.007 129.71 280.98 129.71V128.975C281.727 129.045 282.45 129.08 283.15 129.08C283.827 129.08 284.468 129.045 285.075 128.975C285.705 128.882 286.277 128.753 286.79 128.59V142.345C286.79 143.068 286.837 143.733 286.93 144.34C287.023 144.947 287.257 145.437 287.63 145.81C288.003 146.183 288.61 146.37 289.45 146.37C290.36 146.37 291.165 146.09 291.865 145.53C292.588 144.97 293.148 144.212 293.545 143.255C293.965 142.298 294.175 141.225 294.175 140.035V132.79C294.175 131.74 293.988 130.97 293.615 130.48C293.242 129.967 292.542 129.71 291.515 129.71V128.975C292.262 129.045 292.985 129.08 293.685 129.08C294.362 129.08 295.003 129.045 295.61 128.975C296.24 128.882 296.812 128.753 297.325 128.59ZM307.337 128.59V150.08C307.337 151.083 307.629 151.748 308.212 152.075C308.819 152.425 309.647 152.6 310.697 152.6V153.335C310.184 153.312 309.472 153.277 308.562 153.23C307.652 153.207 306.684 153.195 305.657 153.195C304.934 153.195 304.21 153.207 303.487 153.23C302.787 153.277 302.25 153.312 301.877 153.335V152.6C302.717 152.6 303.312 152.448 303.662 152.145C304.012 151.842 304.187 151.27 304.187 150.43V132.79C304.187 131.74 304 130.97 303.627 130.48C303.254 129.967 302.554 129.71 301.527 129.71V128.975C302.274 129.045 302.997 129.08 303.697 129.08C304.374 129.08 305.015 129.045 305.622 128.975C306.252 128.882 306.824 128.753 307.337 128.59ZM312.937 128.485C314.174 128.485 315.282 128.823 316.262 129.5C317.242 130.153 318.012 131.122 318.572 132.405C319.155 133.688 319.447 135.275 319.447 137.165C319.447 138.425 319.295 139.673 318.992 140.91C318.689 142.123 318.21 143.232 317.557 144.235C316.927 145.215 316.099 146.008 315.072 146.615C314.069 147.198 312.855 147.49 311.432 147.49C310.335 147.49 309.379 147.233 308.562 146.72C307.769 146.207 307.232 145.588 306.952 144.865L307.302 144.375C307.629 145.028 308.095 145.577 308.702 146.02C309.332 146.463 310.114 146.685 311.047 146.685C312.354 146.685 313.369 146.277 314.092 145.46C314.815 144.643 315.317 143.558 315.597 142.205C315.9 140.828 316.052 139.312 316.052 137.655C316.052 135.788 315.9 134.26 315.597 133.07C315.294 131.88 314.839 130.993 314.232 130.41C313.625 129.827 312.879 129.535 311.992 129.535C310.849 129.535 309.81 130.013 308.877 130.97C307.944 131.903 307.349 133.327 307.092 135.24L306.672 134.75C306.929 132.767 307.629 131.227 308.772 130.13C309.939 129.033 311.327 128.485 312.937 128.485ZM327.079 147.245C326.122 147.245 325.294 147.07 324.594 146.72C323.894 146.347 323.357 145.833 322.984 145.18C322.634 144.527 322.459 143.768 322.459 142.905C322.459 141.878 322.692 141.038 323.159 140.385C323.649 139.732 324.267 139.207 325.014 138.81C325.76 138.413 326.542 138.087 327.359 137.83C328.199 137.55 328.992 137.293 329.739 137.06C330.485 136.803 331.092 136.512 331.559 136.185C332.049 135.858 332.294 135.427 332.294 134.89V132.72C332.294 131.74 332.142 130.993 331.839 130.48C331.559 129.967 331.174 129.628 330.684 129.465C330.194 129.278 329.645 129.185 329.039 129.185C328.455 129.185 327.825 129.267 327.149 129.43C326.495 129.593 325.97 129.932 325.574 130.445C326.017 130.538 326.402 130.772 326.729 131.145C327.055 131.518 327.219 131.997 327.219 132.58C327.219 133.163 327.032 133.63 326.659 133.98C326.285 134.307 325.807 134.47 325.224 134.47C324.547 134.47 324.045 134.26 323.719 133.84C323.415 133.397 323.264 132.907 323.264 132.37C323.264 131.763 323.415 131.273 323.719 130.9C324.022 130.527 324.407 130.177 324.874 129.85C325.41 129.477 326.099 129.162 326.939 128.905C327.802 128.625 328.77 128.485 329.844 128.485C330.8 128.485 331.617 128.602 332.294 128.835C332.97 129.045 333.53 129.36 333.974 129.78C334.58 130.34 334.977 131.028 335.164 131.845C335.35 132.638 335.444 133.595 335.444 134.715V144.445C335.444 145.028 335.525 145.448 335.689 145.705C335.875 145.962 336.155 146.09 336.529 146.09C336.785 146.09 337.03 146.032 337.264 145.915C337.497 145.798 337.777 145.612 338.104 145.355L338.489 145.95C337.999 146.323 337.532 146.638 337.089 146.895C336.645 147.128 336.05 147.245 335.304 147.245C334.627 147.245 334.067 147.128 333.624 146.895C333.18 146.662 332.842 146.323 332.609 145.88C332.399 145.413 332.294 144.83 332.294 144.13C331.664 145.18 330.905 145.962 330.019 146.475C329.155 146.988 328.175 147.245 327.079 147.245ZM328.339 145.845C329.109 145.845 329.82 145.623 330.474 145.18C331.15 144.737 331.757 144.072 332.294 143.185V136.325C332.014 136.722 331.605 137.06 331.069 137.34C330.532 137.597 329.949 137.865 329.319 138.145C328.689 138.402 328.082 138.717 327.499 139.09C326.939 139.44 326.472 139.907 326.099 140.49C325.725 141.073 325.539 141.832 325.539 142.765C325.539 143.698 325.784 144.445 326.274 145.005C326.787 145.565 327.475 145.845 328.339 145.845ZM345.805 128.485C346.739 128.485 347.532 128.637 348.185 128.94C348.839 129.243 349.317 129.523 349.62 129.78C350.39 130.41 350.857 129.99 351.02 128.52H351.825C351.779 129.173 351.744 129.955 351.72 130.865C351.697 131.752 351.685 132.953 351.685 134.47H350.88C350.74 133.607 350.495 132.767 350.145 131.95C349.819 131.133 349.329 130.468 348.675 129.955C348.022 129.418 347.17 129.15 346.12 129.15C345.304 129.15 344.615 129.383 344.055 129.85C343.519 130.293 343.25 130.958 343.25 131.845C343.25 132.545 343.46 133.152 343.88 133.665C344.3 134.155 344.849 134.622 345.525 135.065C346.202 135.485 346.937 135.952 347.73 136.465C348.617 137.025 349.422 137.597 350.145 138.18C350.869 138.763 351.44 139.405 351.86 140.105C352.304 140.805 352.525 141.633 352.525 142.59C352.525 143.663 352.245 144.562 351.685 145.285C351.125 146.008 350.39 146.557 349.48 146.93C348.594 147.303 347.614 147.49 346.54 147.49C346.027 147.49 345.537 147.443 345.07 147.35C344.627 147.28 344.195 147.163 343.775 147C343.542 146.883 343.297 146.743 343.04 146.58C342.807 146.417 342.574 146.242 342.34 146.055C342.107 145.868 341.897 145.88 341.71 146.09C341.524 146.277 341.384 146.662 341.29 147.245H340.485C340.532 146.498 340.567 145.588 340.59 144.515C340.614 143.442 340.625 142.018 340.625 140.245H341.43C341.594 141.552 341.827 142.695 342.13 143.675C342.434 144.655 342.912 145.425 343.565 145.985C344.219 146.522 345.129 146.79 346.295 146.79C346.762 146.79 347.229 146.685 347.695 146.475C348.185 146.265 348.594 145.915 348.92 145.425C349.247 144.935 349.41 144.282 349.41 143.465C349.41 142.438 349.037 141.598 348.29 140.945C347.544 140.292 346.599 139.603 345.455 138.88C344.615 138.343 343.822 137.807 343.075 137.27C342.352 136.733 341.757 136.127 341.29 135.45C340.847 134.773 340.625 133.957 340.625 133C340.625 131.95 340.859 131.098 341.325 130.445C341.815 129.768 342.457 129.278 343.25 128.975C344.044 128.648 344.895 128.485 345.805 128.485ZM372.556 119.63C373.209 119.63 373.781 119.723 374.271 119.91C374.784 120.073 375.227 120.295 375.601 120.575C375.951 120.855 376.219 121.182 376.406 121.555C376.592 121.928 376.686 122.325 376.686 122.745C376.686 123.282 376.511 123.725 376.161 124.075C375.811 124.425 375.367 124.6 374.831 124.6C374.317 124.6 373.862 124.437 373.466 124.11C373.092 123.76 372.906 123.293 372.906 122.71C372.906 122.22 373.034 121.823 373.291 121.52C373.571 121.217 373.932 121.018 374.376 120.925C374.306 120.715 374.119 120.54 373.816 120.4C373.536 120.237 373.151 120.155 372.661 120.155C372.124 120.155 371.657 120.272 371.261 120.505C370.887 120.738 370.596 121.053 370.386 121.45C370.106 121.94 369.931 122.675 369.861 123.655C369.791 124.612 369.756 126.093 369.756 128.1V129.01H373.501V129.71H369.756V143.395C369.756 144.538 370.082 145.308 370.736 145.705C371.412 146.078 372.322 146.265 373.466 146.265V147C372.929 146.977 372.171 146.953 371.191 146.93C370.211 146.883 369.172 146.86 368.076 146.86C367.282 146.86 366.489 146.883 365.696 146.93C364.926 146.953 364.342 146.977 363.946 147V146.265C364.902 146.265 365.579 146.09 365.976 145.74C366.396 145.39 366.606 144.725 366.606 143.745V129.71H363.806V129.01H366.606C366.606 127.633 366.664 126.478 366.781 125.545C366.897 124.612 367.084 123.818 367.341 123.165C367.597 122.488 367.947 121.893 368.391 121.38C368.857 120.843 369.452 120.423 370.176 120.12C370.899 119.793 371.692 119.63 372.556 119.63ZM383.456 128.485C385.509 128.485 387.107 129.115 388.251 130.375C389.417 131.612 390.001 133.548 390.001 136.185H377.646L377.611 135.52H386.641C386.687 134.377 386.594 133.327 386.361 132.37C386.127 131.39 385.754 130.608 385.241 130.025C384.751 129.442 384.109 129.15 383.316 129.15C382.242 129.15 381.286 129.687 380.446 130.76C379.629 131.833 379.139 133.537 378.976 135.87L379.081 136.01C379.034 136.36 378.999 136.745 378.976 137.165C378.952 137.585 378.941 138.005 378.941 138.425C378.941 140.012 379.197 141.377 379.711 142.52C380.224 143.663 380.889 144.538 381.706 145.145C382.546 145.728 383.409 146.02 384.296 146.02C384.996 146.02 385.661 145.915 386.291 145.705C386.921 145.472 387.504 145.098 388.041 144.585C388.577 144.072 389.044 143.383 389.441 142.52L390.141 142.8C389.884 143.57 389.464 144.317 388.881 145.04C388.297 145.763 387.562 146.358 386.676 146.825C385.789 147.268 384.762 147.49 383.596 147.49C381.916 147.49 380.469 147.105 379.256 146.335C378.066 145.565 377.144 144.503 376.491 143.15C375.861 141.773 375.546 140.198 375.546 138.425C375.546 136.372 375.872 134.61 376.526 133.14C377.179 131.647 378.101 130.503 379.291 129.71C380.481 128.893 381.869 128.485 383.456 128.485ZM404.206 128.485C405.022 128.485 405.734 128.602 406.341 128.835C406.947 129.068 407.449 129.395 407.846 129.815C408.289 130.282 408.592 130.888 408.756 131.635C408.919 132.382 409.001 133.303 409.001 134.4V143.745C409.001 144.725 409.199 145.39 409.596 145.74C410.016 146.09 410.704 146.265 411.661 146.265V147C411.264 146.977 410.657 146.953 409.841 146.93C409.024 146.883 408.231 146.86 407.461 146.86C406.691 146.86 405.932 146.883 405.186 146.93C404.462 146.953 403.914 146.977 403.541 147V146.265C404.381 146.265 404.976 146.09 405.326 145.74C405.676 145.39 405.851 144.725 405.851 143.745V133.63C405.851 132.907 405.804 132.242 405.711 131.635C405.617 131.028 405.384 130.538 405.011 130.165C404.637 129.792 404.031 129.605 403.191 129.605C402.281 129.605 401.464 129.885 400.741 130.445C400.041 131.005 399.481 131.775 399.061 132.755C398.664 133.712 398.466 134.785 398.466 135.975V143.745C398.466 144.725 398.641 145.39 398.991 145.74C399.341 146.09 399.936 146.265 400.776 146.265V147C400.402 146.977 399.842 146.953 399.096 146.93C398.372 146.883 397.626 146.86 396.856 146.86C396.086 146.86 395.292 146.883 394.476 146.93C393.659 146.953 393.052 146.977 392.656 147V146.265C393.612 146.265 394.289 146.09 394.686 145.74C395.106 145.39 395.316 144.725 395.316 143.745V132.79C395.316 131.74 395.129 130.97 394.756 130.48C394.382 129.967 393.682 129.71 392.656 129.71V128.975C393.402 129.045 394.126 129.08 394.826 129.08C395.502 129.08 396.144 129.045 396.751 128.975C397.381 128.882 397.952 128.753 398.466 128.59V132.72C399.072 131.203 399.901 130.118 400.951 129.465C402.001 128.812 403.086 128.485 404.206 128.485ZM414.741 128.485C415.557 128.485 416.269 128.602 416.876 128.835C417.482 129.068 417.984 129.395 418.381 129.815C418.824 130.282 419.127 130.888 419.291 131.635C419.454 132.382 419.536 133.303 419.536 134.4V143.745C419.536 144.725 419.734 145.39 420.131 145.74C420.551 146.09 421.239 146.265 422.196 146.265V147C421.799 146.977 421.192 146.953 420.376 146.93C419.559 146.883 418.766 146.86 417.996 146.86C417.226 146.86 416.467 146.883 415.721 146.93C414.997 146.953 414.449 146.977 414.076 147V146.265C414.916 146.265 415.511 146.09 415.861 145.74C416.211 145.39 416.386 144.725 416.386 143.745V133.63C416.386 132.907 416.339 132.242 416.246 131.635C416.152 131.028 415.919 130.538 415.546 130.165C415.172 129.792 414.566 129.605 413.726 129.605C412.816 129.605 411.999 129.885 411.276 130.445C410.576 131.005 410.016 131.763 409.596 132.72C409.199 133.677 409.001 134.75 409.001 135.94L408.896 132.685C409.526 131.075 410.377 129.978 411.451 129.395C412.524 128.788 413.621 128.485 414.741 128.485ZM427.715 120.225C428.322 120.225 428.847 120.447 429.29 120.89C429.733 121.333 429.955 121.858 429.955 122.465C429.955 123.072 429.733 123.597 429.29 124.04C428.847 124.483 428.322 124.705 427.715 124.705C427.108 124.705 426.583 124.483 426.14 124.04C425.697 123.597 425.475 123.072 425.475 122.465C425.475 121.858 425.697 121.333 426.14 120.89C426.583 120.447 427.108 120.225 427.715 120.225ZM429.535 128.59V143.745C429.535 144.725 429.733 145.39 430.13 145.74C430.55 146.09 431.238 146.265 432.195 146.265V147C431.798 146.977 431.192 146.953 430.375 146.93C429.582 146.883 428.777 146.86 427.96 146.86C427.167 146.86 426.362 146.883 425.545 146.93C424.728 146.953 424.122 146.977 423.725 147V146.265C424.682 146.265 425.358 146.09 425.755 145.74C426.175 145.39 426.385 144.725 426.385 143.745V132.79C426.385 131.74 426.198 130.97 425.825 130.48C425.452 129.967 424.752 129.71 423.725 129.71V128.975C424.472 129.045 425.195 129.08 425.895 129.08C426.572 129.08 427.213 129.045 427.82 128.975C428.45 128.882 429.022 128.753 429.535 128.59ZM445.739 128.485C446.626 128.485 447.361 128.602 447.944 128.835C448.551 129.068 449.052 129.395 449.449 129.815C449.892 130.282 450.207 130.865 450.394 131.565C450.581 132.265 450.674 133.21 450.674 134.4V143.745C450.674 144.725 450.872 145.39 451.269 145.74C451.689 146.09 452.377 146.265 453.334 146.265V147C452.937 146.977 452.331 146.953 451.514 146.93C450.697 146.883 449.904 146.86 449.134 146.86C448.364 146.86 447.606 146.883 446.859 146.93C446.136 146.953 445.587 146.977 445.214 147V146.265C446.054 146.265 446.649 146.09 446.999 145.74C447.349 145.39 447.524 144.725 447.524 143.745V133.63C447.524 132.907 447.466 132.242 447.349 131.635C447.232 131.028 446.964 130.538 446.544 130.165C446.147 129.792 445.529 129.605 444.689 129.605C443.709 129.605 442.846 129.885 442.099 130.445C441.376 131.005 440.804 131.775 440.384 132.755C439.987 133.712 439.789 134.785 439.789 135.975V143.745C439.789 144.725 439.964 145.39 440.314 145.74C440.664 146.09 441.259 146.265 442.099 146.265V147C441.726 146.977 441.166 146.953 440.419 146.93C439.696 146.883 438.949 146.86 438.179 146.86C437.409 146.86 436.616 146.883 435.799 146.93C434.982 146.953 434.376 146.977 433.979 147V146.265C434.936 146.265 435.612 146.09 436.009 145.74C436.429 145.39 436.639 144.725 436.639 143.745V132.79C436.639 131.74 436.452 130.97 436.079 130.48C435.706 129.967 435.006 129.71 433.979 129.71V128.975C434.726 129.045 435.449 129.08 436.149 129.08C436.826 129.08 437.467 129.045 438.074 128.975C438.704 128.882 439.276 128.753 439.789 128.59V132.72C440.396 131.133 441.236 130.037 442.309 129.43C443.406 128.8 444.549 128.485 445.739 128.485ZM458.853 120.225C459.459 120.225 459.984 120.447 460.428 120.89C460.871 121.333 461.093 121.858 461.093 122.465C461.093 123.072 460.871 123.597 460.428 124.04C459.984 124.483 459.459 124.705 458.853 124.705C458.246 124.705 457.721 124.483 457.278 124.04C456.834 123.597 456.613 123.072 456.613 122.465C456.613 121.858 456.834 121.333 457.278 120.89C457.721 120.447 458.246 120.225 458.853 120.225ZM460.673 128.59V143.745C460.673 144.725 460.871 145.39 461.268 145.74C461.688 146.09 462.376 146.265 463.333 146.265V147C462.936 146.977 462.329 146.953 461.513 146.93C460.719 146.883 459.914 146.86 459.098 146.86C458.304 146.86 457.499 146.883 456.683 146.93C455.866 146.953 455.259 146.977 454.863 147V146.265C455.819 146.265 456.496 146.09 456.893 145.74C457.313 145.39 457.523 144.725 457.523 143.745V132.79C457.523 131.74 457.336 130.97 456.963 130.48C456.589 129.967 455.889 129.71 454.863 129.71V128.975C455.609 129.045 456.333 129.08 457.033 129.08C457.709 129.08 458.351 129.045 458.958 128.975C459.588 128.882 460.159 128.753 460.673 128.59ZM476.877 128.485C477.763 128.485 478.498 128.602 479.082 128.835C479.688 129.068 480.19 129.395 480.587 129.815C481.03 130.282 481.345 130.865 481.532 131.565C481.718 132.265 481.812 133.21 481.812 134.4V143.745C481.812 144.725 482.01 145.39 482.407 145.74C482.827 146.09 483.515 146.265 484.472 146.265V147C484.075 146.977 483.468 146.953 482.652 146.93C481.835 146.883 481.042 146.86 480.272 146.86C479.502 146.86 478.743 146.883 477.997 146.93C477.273 146.953 476.725 146.977 476.352 147V146.265C477.192 146.265 477.787 146.09 478.137 145.74C478.487 145.39 478.662 144.725 478.662 143.745V133.63C478.662 132.907 478.603 132.242 478.487 131.635C478.37 131.028 478.102 130.538 477.682 130.165C477.285 129.792 476.667 129.605 475.827 129.605C474.847 129.605 473.983 129.885 473.237 130.445C472.513 131.005 471.942 131.775 471.522 132.755C471.125 133.712 470.927 134.785 470.927 135.975V143.745C470.927 144.725 471.102 145.39 471.452 145.74C471.802 146.09 472.397 146.265 473.237 146.265V147C472.863 146.977 472.303 146.953 471.557 146.93C470.833 146.883 470.087 146.86 469.317 146.86C468.547 146.86 467.753 146.883 466.937 146.93C466.12 146.953 465.513 146.977 465.117 147V146.265C466.073 146.265 466.75 146.09 467.147 145.74C467.567 145.39 467.777 144.725 467.777 143.745V132.79C467.777 131.74 467.59 130.97 467.217 130.48C466.843 129.967 466.143 129.71 465.117 129.71V128.975C465.863 129.045 466.587 129.08 467.287 129.08C467.963 129.08 468.605 129.045 469.212 128.975C469.842 128.882 470.413 128.753 470.927 128.59V132.72C471.533 131.133 472.373 130.037 473.447 129.43C474.543 128.8 475.687 128.485 476.877 128.485ZM490.97 147.245C490.014 147.245 489.185 147.07 488.485 146.72C487.785 146.347 487.249 145.833 486.875 145.18C486.525 144.527 486.35 143.768 486.35 142.905C486.35 141.878 486.584 141.038 487.05 140.385C487.54 139.732 488.159 139.207 488.905 138.81C489.652 138.413 490.434 138.087 491.25 137.83C492.09 137.55 492.884 137.293 493.63 137.06C494.377 136.803 494.984 136.512 495.45 136.185C495.94 135.858 496.185 135.427 496.185 134.89V132.72C496.185 131.74 496.034 130.993 495.73 130.48C495.45 129.967 495.065 129.628 494.575 129.465C494.085 129.278 493.537 129.185 492.93 129.185C492.347 129.185 491.717 129.267 491.04 129.43C490.387 129.593 489.862 129.932 489.465 130.445C489.909 130.538 490.294 130.772 490.62 131.145C490.947 131.518 491.11 131.997 491.11 132.58C491.11 133.163 490.924 133.63 490.55 133.98C490.177 134.307 489.699 134.47 489.115 134.47C488.439 134.47 487.937 134.26 487.61 133.84C487.307 133.397 487.155 132.907 487.155 132.37C487.155 131.763 487.307 131.273 487.61 130.9C487.914 130.527 488.299 130.177 488.765 129.85C489.302 129.477 489.99 129.162 490.83 128.905C491.694 128.625 492.662 128.485 493.735 128.485C494.692 128.485 495.509 128.602 496.185 128.835C496.862 129.045 497.422 129.36 497.865 129.78C498.472 130.34 498.869 131.028 499.055 131.845C499.242 132.638 499.335 133.595 499.335 134.715V144.445C499.335 145.028 499.417 145.448 499.58 145.705C499.767 145.962 500.047 146.09 500.42 146.09C500.677 146.09 500.922 146.032 501.155 145.915C501.389 145.798 501.669 145.612 501.995 145.355L502.38 145.95C501.89 146.323 501.424 146.638 500.98 146.895C500.537 147.128 499.942 147.245 499.195 147.245C498.519 147.245 497.959 147.128 497.515 146.895C497.072 146.662 496.734 146.323 496.5 145.88C496.29 145.413 496.185 144.83 496.185 144.13C495.555 145.18 494.797 145.962 493.91 146.475C493.047 146.988 492.067 147.245 490.97 147.245ZM492.23 145.845C493 145.845 493.712 145.623 494.365 145.18C495.042 144.737 495.649 144.072 496.185 143.185V136.325C495.905 136.722 495.497 137.06 494.96 137.34C494.424 137.597 493.84 137.865 493.21 138.145C492.58 138.402 491.974 138.717 491.39 139.09C490.83 139.44 490.364 139.907 489.99 140.49C489.617 141.073 489.43 141.832 489.43 142.765C489.43 143.698 489.675 144.445 490.165 145.005C490.679 145.565 491.367 145.845 492.23 145.845ZM509.697 128.485C510.63 128.485 511.424 128.637 512.077 128.94C512.73 129.243 513.209 129.523 513.512 129.78C514.282 130.41 514.749 129.99 514.912 128.52H515.717C515.67 129.173 515.635 129.955 515.612 130.865C515.589 131.752 515.577 132.953 515.577 134.47H514.772C514.632 133.607 514.387 132.767 514.037 131.95C513.71 131.133 513.22 130.468 512.567 129.955C511.914 129.418 511.062 129.15 510.012 129.15C509.195 129.15 508.507 129.383 507.947 129.85C507.41 130.293 507.142 130.958 507.142 131.845C507.142 132.545 507.352 133.152 507.772 133.665C508.192 134.155 508.74 134.622 509.417 135.065C510.094 135.485 510.829 135.952 511.622 136.465C512.509 137.025 513.314 137.597 514.037 138.18C514.76 138.763 515.332 139.405 515.752 140.105C516.195 140.805 516.417 141.633 516.417 142.59C516.417 143.663 516.137 144.562 515.577 145.285C515.017 146.008 514.282 146.557 513.372 146.93C512.485 147.303 511.505 147.49 510.432 147.49C509.919 147.49 509.429 147.443 508.962 147.35C508.519 147.28 508.087 147.163 507.667 147C507.434 146.883 507.189 146.743 506.932 146.58C506.699 146.417 506.465 146.242 506.232 146.055C505.999 145.868 505.789 145.88 505.602 146.09C505.415 146.277 505.275 146.662 505.182 147.245H504.377C504.424 146.498 504.459 145.588 504.482 144.515C504.505 143.442 504.517 142.018 504.517 140.245H505.322C505.485 141.552 505.719 142.695 506.022 143.675C506.325 144.655 506.804 145.425 507.457 145.985C508.11 146.522 509.02 146.79 510.187 146.79C510.654 146.79 511.12 146.685 511.587 146.475C512.077 146.265 512.485 145.915 512.812 145.425C513.139 144.935 513.302 144.282 513.302 143.465C513.302 142.438 512.929 141.598 512.182 140.945C511.435 140.292 510.49 139.603 509.347 138.88C508.507 138.343 507.714 137.807 506.967 137.27C506.244 136.733 505.649 136.127 505.182 135.45C504.739 134.773 504.517 133.957 504.517 133C504.517 131.95 504.75 131.098 505.217 130.445C505.707 129.768 506.349 129.278 507.142 128.975C507.935 128.648 508.787 128.485 509.697 128.485ZM536.447 119.63C537.1 119.63 537.672 119.723 538.162 119.91C538.675 120.073 539.119 120.295 539.492 120.575C539.842 120.855 540.11 121.182 540.297 121.555C540.484 121.928 540.577 122.325 540.577 122.745C540.577 123.282 540.402 123.725 540.052 124.075C539.702 124.425 539.259 124.6 538.722 124.6C538.209 124.6 537.754 124.437 537.357 124.11C536.984 123.76 536.797 123.293 536.797 122.71C536.797 122.22 536.925 121.823 537.182 121.52C537.462 121.217 537.824 121.018 538.267 120.925C538.197 120.715 538.01 120.54 537.707 120.4C537.427 120.237 537.042 120.155 536.552 120.155C536.015 120.155 535.549 120.272 535.152 120.505C534.779 120.738 534.487 121.053 534.277 121.45C533.997 121.94 533.822 122.675 533.752 123.655C533.682 124.612 533.647 126.093 533.647 128.1V129.01H537.392V129.71H533.647V143.395C533.647 144.538 533.974 145.308 534.627 145.705C535.304 146.078 536.214 146.265 537.357 146.265V147C536.82 146.977 536.062 146.953 535.082 146.93C534.102 146.883 533.064 146.86 531.967 146.86C531.174 146.86 530.38 146.883 529.587 146.93C528.817 146.953 528.234 146.977 527.837 147V146.265C528.794 146.265 529.47 146.09 529.867 145.74C530.287 145.39 530.497 144.725 530.497 143.745V129.71H527.697V129.01H530.497C530.497 127.633 530.555 126.478 530.672 125.545C530.789 124.612 530.975 123.818 531.232 123.165C531.489 122.488 531.839 121.893 532.282 121.38C532.749 120.843 533.344 120.423 534.067 120.12C534.79 119.793 535.584 119.63 536.447 119.63ZM544.393 147.245C543.437 147.245 542.608 147.07 541.908 146.72C541.208 146.347 540.672 145.833 540.298 145.18C539.948 144.527 539.773 143.768 539.773 142.905C539.773 141.878 540.007 141.038 540.473 140.385C540.963 139.732 541.582 139.207 542.328 138.81C543.075 138.413 543.857 138.087 544.673 137.83C545.513 137.55 546.307 137.293 547.053 137.06C547.8 136.803 548.407 136.512 548.873 136.185C549.363 135.858 549.608 135.427 549.608 134.89V132.72C549.608 131.74 549.457 130.993 549.153 130.48C548.873 129.967 548.488 129.628 547.998 129.465C547.508 129.278 546.96 129.185 546.353 129.185C545.77 129.185 545.14 129.267 544.463 129.43C543.81 129.593 543.285 129.932 542.888 130.445C543.332 130.538 543.717 130.772 544.043 131.145C544.37 131.518 544.533 131.997 544.533 132.58C544.533 133.163 544.347 133.63 543.973 133.98C543.6 134.307 543.122 134.47 542.538 134.47C541.862 134.47 541.36 134.26 541.033 133.84C540.73 133.397 540.578 132.907 540.578 132.37C540.578 131.763 540.73 131.273 541.033 130.9C541.337 130.527 541.722 130.177 542.188 129.85C542.725 129.477 543.413 129.162 544.253 128.905C545.117 128.625 546.085 128.485 547.158 128.485C548.115 128.485 548.932 128.602 549.608 128.835C550.285 129.045 550.845 129.36 551.288 129.78C551.895 130.34 552.292 131.028 552.478 131.845C552.665 132.638 552.758 133.595 552.758 134.715V144.445C552.758 145.028 552.84 145.448 553.003 145.705C553.19 145.962 553.47 146.09 553.843 146.09C554.1 146.09 554.345 146.032 554.578 145.915C554.812 145.798 555.092 145.612 555.418 145.355L555.803 145.95C555.313 146.323 554.847 146.638 554.403 146.895C553.96 147.128 553.365 147.245 552.618 147.245C551.942 147.245 551.382 147.128 550.938 146.895C550.495 146.662 550.157 146.323 549.923 145.88C549.713 145.413 549.608 144.83 549.608 144.13C548.978 145.18 548.22 145.962 547.333 146.475C546.47 146.988 545.49 147.245 544.393 147.245ZM545.653 145.845C546.423 145.845 547.135 145.623 547.788 145.18C548.465 144.737 549.072 144.072 549.608 143.185V136.325C549.328 136.722 548.92 137.06 548.383 137.34C547.847 137.597 547.263 137.865 546.633 138.145C546.003 138.402 545.397 138.717 544.813 139.09C544.253 139.44 543.787 139.907 543.413 140.49C543.04 141.073 542.853 141.832 542.853 142.765C542.853 143.698 543.098 144.445 543.588 145.005C544.102 145.565 544.79 145.845 545.653 145.845ZM572.679 128.975V129.675C572.236 129.722 571.827 129.92 571.454 130.27C571.081 130.62 570.731 131.238 570.404 132.125L564.664 147.175C564.571 147.175 564.477 147.175 564.384 147.175C564.291 147.175 564.186 147.175 564.069 147.175L557.629 131.67C557.256 130.76 556.882 130.212 556.509 130.025C556.159 129.815 555.856 129.71 555.599 129.71V128.975C556.066 128.998 556.544 129.033 557.034 129.08C557.547 129.103 558.096 129.115 558.679 129.115C559.402 129.115 560.161 129.103 560.954 129.08C561.771 129.057 562.529 129.022 563.229 128.975V129.71C562.646 129.71 562.121 129.757 561.654 129.85C561.211 129.92 560.919 130.142 560.779 130.515C560.662 130.888 560.779 131.53 561.129 132.44L565.504 143.255L565.294 143.43L569.284 132.965C569.587 132.195 569.704 131.588 569.634 131.145C569.587 130.678 569.354 130.328 568.934 130.095C568.537 129.862 567.919 129.722 567.079 129.675V128.975C567.499 128.998 567.861 129.022 568.164 129.045C568.467 129.045 568.759 129.057 569.039 129.08C569.342 129.08 569.669 129.08 570.019 129.08C570.556 129.08 571.034 129.068 571.454 129.045C571.897 129.022 572.306 128.998 572.679 128.975ZM582.075 128.485C583.569 128.485 584.91 128.812 586.1 129.465C587.29 130.118 588.235 131.145 588.935 132.545C589.659 133.945 590.02 135.765 590.02 138.005C590.02 140.245 589.659 142.065 588.935 143.465C588.235 144.842 587.29 145.857 586.1 146.51C584.91 147.163 583.569 147.49 582.075 147.49C580.605 147.49 579.264 147.163 578.05 146.51C576.86 145.857 575.904 144.842 575.18 143.465C574.48 142.065 574.13 140.245 574.13 138.005C574.13 135.765 574.48 133.945 575.18 132.545C575.904 131.145 576.86 130.118 578.05 129.465C579.264 128.812 580.605 128.485 582.075 128.485ZM582.075 129.185C580.745 129.185 579.649 129.873 578.785 131.25C577.945 132.627 577.525 134.878 577.525 138.005C577.525 141.132 577.945 143.383 578.785 144.76C579.649 146.113 580.745 146.79 582.075 146.79C583.405 146.79 584.49 146.113 585.33 144.76C586.194 143.383 586.625 141.132 586.625 138.005C586.625 134.878 586.194 132.627 585.33 131.25C584.49 129.873 583.405 129.185 582.075 129.185ZM603.56 128.485C604.19 128.485 604.738 128.613 605.205 128.87C605.695 129.127 606.068 129.465 606.325 129.885C606.605 130.282 606.745 130.737 606.745 131.25C606.745 131.833 606.558 132.347 606.185 132.79C605.835 133.233 605.357 133.455 604.75 133.455C604.26 133.455 603.828 133.303 603.455 133C603.082 132.673 602.895 132.218 602.895 131.635C602.895 131.192 603.012 130.818 603.245 130.515C603.502 130.188 603.782 129.932 604.085 129.745C603.922 129.512 603.677 129.395 603.35 129.395C602.627 129.395 601.962 129.617 601.355 130.06C600.748 130.48 600.235 131.028 599.815 131.705C599.395 132.382 599.068 133.105 598.835 133.875C598.602 134.622 598.485 135.322 598.485 135.975V143.395C598.485 144.538 598.812 145.308 599.465 145.705C600.142 146.078 601.052 146.265 602.195 146.265V147C601.658 146.977 600.9 146.953 599.92 146.93C598.94 146.883 597.902 146.86 596.805 146.86C596.012 146.86 595.218 146.883 594.425 146.93C593.655 146.953 593.072 146.977 592.675 147V146.265C593.632 146.265 594.308 146.09 594.705 145.74C595.125 145.39 595.335 144.725 595.335 143.745V132.79C595.335 131.74 595.148 130.97 594.775 130.48C594.402 129.967 593.702 129.71 592.675 129.71V128.975C593.422 129.045 594.145 129.08 594.845 129.08C595.522 129.08 596.163 129.045 596.77 128.975C597.4 128.882 597.972 128.753 598.485 128.59V132.965C598.742 132.288 599.103 131.612 599.57 130.935C600.06 130.235 600.643 129.652 601.32 129.185C601.997 128.718 602.743 128.485 603.56 128.485ZM612.251 120.225C612.858 120.225 613.383 120.447 613.826 120.89C614.269 121.333 614.491 121.858 614.491 122.465C614.491 123.072 614.269 123.597 613.826 124.04C613.383 124.483 612.858 124.705 612.251 124.705C611.644 124.705 611.119 124.483 610.676 124.04C610.233 123.597 610.011 123.072 610.011 122.465C610.011 121.858 610.233 121.333 610.676 120.89C611.119 120.447 611.644 120.225 612.251 120.225ZM614.071 128.59V143.745C614.071 144.725 614.269 145.39 614.666 145.74C615.086 146.09 615.774 146.265 616.731 146.265V147C616.334 146.977 615.728 146.953 614.911 146.93C614.118 146.883 613.313 146.86 612.496 146.86C611.703 146.86 610.898 146.883 610.081 146.93C609.264 146.953 608.658 146.977 608.261 147V146.265C609.218 146.265 609.894 146.09 610.291 145.74C610.711 145.39 610.921 144.725 610.921 143.745V132.79C610.921 131.74 610.734 130.97 610.361 130.48C609.988 129.967 609.288 129.71 608.261 129.71V128.975C609.008 129.045 609.731 129.08 610.431 129.08C611.108 129.08 611.749 129.045 612.356 128.975C612.986 128.882 613.558 128.753 614.071 128.59ZM624.15 123.165V129.01H629.33V129.71H624.15V143.255C624.15 144.352 624.348 145.122 624.745 145.565C625.142 146.008 625.69 146.23 626.39 146.23C627.09 146.23 627.697 145.95 628.21 145.39C628.723 144.807 629.167 143.838 629.54 142.485L630.24 142.66C630.007 144.013 629.54 145.157 628.84 146.09C628.163 147.023 627.113 147.49 625.69 147.49C624.897 147.49 624.243 147.385 623.73 147.175C623.217 146.988 622.762 146.708 622.365 146.335C621.852 145.798 621.49 145.157 621.28 144.41C621.093 143.663 621 142.672 621 141.435V129.71H617.64V129.01H621V123.655C621.583 123.632 622.143 123.585 622.68 123.515C623.217 123.445 623.707 123.328 624.15 123.165ZM635.858 147.245C634.901 147.245 634.073 147.07 633.373 146.72C632.673 146.347 632.136 145.833 631.763 145.18C631.413 144.527 631.238 143.768 631.238 142.905C631.238 141.878 631.471 141.038 631.938 140.385C632.428 139.732 633.046 139.207 633.793 138.81C634.54 138.413 635.321 138.087 636.138 137.83C636.978 137.55 637.771 137.293 638.518 137.06C639.265 136.803 639.871 136.512 640.338 136.185C640.828 135.858 641.073 135.427 641.073 134.89V132.72C641.073 131.74 640.921 130.993 640.618 130.48C640.338 129.967 639.953 129.628 639.463 129.465C638.973 129.278 638.425 129.185 637.818 129.185C637.235 129.185 636.605 129.267 635.928 129.43C635.275 129.593 634.75 129.932 634.353 130.445C634.796 130.538 635.181 130.772 635.508 131.145C635.835 131.518 635.998 131.997 635.998 132.58C635.998 133.163 635.811 133.63 635.438 133.98C635.065 134.307 634.586 134.47 634.003 134.47C633.326 134.47 632.825 134.26 632.498 133.84C632.195 133.397 632.043 132.907 632.043 132.37C632.043 131.763 632.195 131.273 632.498 130.9C632.801 130.527 633.186 130.177 633.653 129.85C634.19 129.477 634.878 129.162 635.718 128.905C636.581 128.625 637.55 128.485 638.623 128.485C639.58 128.485 640.396 128.602 641.073 128.835C641.75 129.045 642.31 129.36 642.753 129.78C643.36 130.34 643.756 131.028 643.943 131.845C644.13 132.638 644.223 133.595 644.223 134.715V144.445C644.223 145.028 644.305 145.448 644.468 145.705C644.655 145.962 644.935 146.09 645.308 146.09C645.565 146.09 645.81 146.032 646.043 145.915C646.276 145.798 646.556 145.612 646.883 145.355L647.268 145.95C646.778 146.323 646.311 146.638 645.868 146.895C645.425 147.128 644.83 147.245 644.083 147.245C643.406 147.245 642.846 147.128 642.403 146.895C641.96 146.662 641.621 146.323 641.388 145.88C641.178 145.413 641.073 144.83 641.073 144.13C640.443 145.18 639.685 145.962 638.798 146.475C637.935 146.988 636.955 147.245 635.858 147.245ZM637.118 145.845C637.888 145.845 638.6 145.623 639.253 145.18C639.93 144.737 640.536 144.072 641.073 143.185V136.325C640.793 136.722 640.385 137.06 639.848 137.34C639.311 137.597 638.728 137.865 638.098 138.145C637.468 138.402 636.861 138.717 636.278 139.09C635.718 139.44 635.251 139.907 634.878 140.49C634.505 141.073 634.318 141.832 634.318 142.765C634.318 143.698 634.563 144.445 635.053 145.005C635.566 145.565 636.255 145.845 637.118 145.845Z" fill="#3F3D56"/>
<path d="M246.32 30.36V31.96C244.507 32.0133 243.12 32.2267 242.16 32.6C241.253 32.92 240.64 33.56 240.32 34.52C240 35.4267 239.84 36.8667 239.84 38.84V78.52C239.84 80.44 240 81.88 240.32 82.84C240.64 83.8 241.253 84.44 242.16 84.76C243.12 85.08 244.507 85.2933 246.32 85.4V87C245.093 86.8933 243.547 86.84 241.68 86.84C239.867 86.7867 238.027 86.76 236.16 86.76C234.08 86.76 232.133 86.7867 230.32 86.84C228.507 86.84 227.04 86.8933 225.92 87V85.4C227.733 85.2933 229.093 85.08 230 84.76C230.96 84.44 231.6 83.8 231.92 82.84C232.24 81.88 232.4 80.44 232.4 78.52V34.52L232.72 34.76L213.12 87.4H211.84L191.68 35.48V77.72C191.68 79.64 191.84 81.16 192.16 82.28C192.533 83.3467 193.227 84.12 194.24 84.6C195.307 85.0267 196.88 85.2933 198.96 85.4V87C198 86.8933 196.747 86.84 195.2 86.84C193.653 86.7867 192.187 86.76 190.8 86.76C189.467 86.76 188.107 86.7867 186.72 86.84C185.387 86.84 184.267 86.8933 183.36 87V85.4C185.173 85.2933 186.533 85.0267 187.44 84.6C188.4 84.12 189.04 83.3467 189.36 82.28C189.68 81.16 189.84 79.64 189.84 77.72V38.84C189.84 36.8667 189.68 35.4267 189.36 34.52C189.04 33.56 188.4 32.92 187.44 32.6C186.533 32.2267 185.173 32.0133 183.36 31.96V30.36C184.267 30.4133 185.387 30.4667 186.72 30.52C188.107 30.5733 189.467 30.6 190.8 30.6C191.973 30.6 193.173 30.5733 194.4 30.52C195.68 30.4667 196.747 30.4133 197.6 30.36L215.76 78.2L214.4 78.84L232.4 30.6C233.04 30.6 233.653 30.6 234.24 30.6C234.88 30.6 235.52 30.6 236.16 30.6C238.027 30.6 239.867 30.5733 241.68 30.52C243.547 30.4667 245.093 30.4133 246.32 30.36ZM278.743 29.24C283.809 29.24 288.236 30.3867 292.023 32.68C295.863 34.9733 298.823 38.28 300.903 42.6C303.036 46.8667 304.103 52.0667 304.103 58.2C304.103 64.1733 303.009 69.4 300.823 73.88C298.689 78.36 295.703 81.8533 291.863 84.36C288.023 86.8667 283.623 88.12 278.663 88.12C273.596 88.12 269.143 86.9733 265.303 84.68C261.516 82.3867 258.556 79.08 256.423 74.76C254.343 70.44 253.303 65.24 253.303 59.16C253.303 53.1867 254.396 47.96 256.583 43.48C258.769 39 261.756 35.5067 265.543 33C269.383 30.4933 273.783 29.24 278.743 29.24ZM278.423 30.68C274.956 30.68 271.943 31.88 269.383 34.28C266.823 36.68 264.823 39.9867 263.383 44.2C261.996 48.4133 261.303 53.2933 261.303 58.84C261.303 64.4933 262.076 69.4267 263.623 73.64C265.223 77.8 267.356 81.0267 270.023 83.32C272.743 85.56 275.729 86.68 278.983 86.68C282.449 86.68 285.463 85.48 288.023 83.08C290.583 80.68 292.556 77.3733 293.943 73.16C295.383 68.8933 296.102 64.0133 296.102 58.52C296.102 52.8133 295.303 47.88 293.703 43.72C292.156 39.56 290.049 36.36 287.383 34.12C284.716 31.8267 281.729 30.68 278.423 30.68ZM332.934 30.36C342.481 30.36 349.574 32.76 354.214 37.56C358.854 42.3067 361.174 49.1333 361.174 58.04C361.174 63.8533 360.028 68.9467 357.734 73.32C355.494 77.64 352.214 81 347.894 83.4C343.574 85.8 338.348 87 332.214 87C331.414 87 330.348 86.9733 329.014 86.92C327.681 86.8667 326.294 86.84 324.854 86.84C323.468 86.7867 322.188 86.76 321.014 86.76C319.148 86.76 317.308 86.7867 315.494 86.84C313.681 86.84 312.214 86.8933 311.094 87V85.4C312.908 85.2933 314.268 85.08 315.174 84.76C316.134 84.44 316.774 83.8 317.094 82.84C317.414 81.88 317.574 80.44 317.574 78.52V38.84C317.574 36.8667 317.414 35.4267 317.094 34.52C316.774 33.56 316.134 32.92 315.174 32.6C314.268 32.2267 312.908 32.0133 311.094 31.96V30.36C312.214 30.4133 313.681 30.4933 315.494 30.6C317.308 30.6533 319.094 30.6533 320.854 30.6C322.721 30.5467 324.828 30.4933 327.174 30.44C329.521 30.3867 331.441 30.36 332.934 30.36ZM330.934 31.8C328.481 31.8 326.881 32.2533 326.134 33.16C325.388 34.0667 325.014 35.9067 325.014 38.68V78.68C325.014 81.4533 325.388 83.2933 326.134 84.2C326.934 85.1067 328.561 85.56 331.014 85.56C336.828 85.56 341.334 84.52 344.534 82.44C347.734 80.3067 349.974 77.2133 351.254 73.16C352.534 69.1067 353.174 64.1733 353.174 58.36C353.174 52.3867 352.454 47.4533 351.014 43.56C349.628 39.6133 347.308 36.68 344.054 34.76C340.854 32.7867 336.481 31.8 330.934 31.8ZM408.124 30.36C407.91 32.2267 407.75 34.04 407.644 35.8C407.59 37.56 407.564 38.8933 407.564 39.8C407.564 40.76 407.59 41.6933 407.644 42.6C407.697 43.4533 407.75 44.1733 407.804 44.76H405.964C405.644 41.6133 405.19 39.1333 404.604 37.32C404.017 35.4533 403.004 34.1467 401.564 33.4C400.177 32.6 398.07 32.2 395.244 32.2H388.604C386.79 32.2 385.404 32.36 384.444 32.68C383.537 32.9467 382.924 33.56 382.604 34.52C382.284 35.4267 382.124 36.8667 382.124 38.84V78.52C382.124 80.44 382.284 81.88 382.604 82.84C382.924 83.8 383.537 84.44 384.444 84.76C385.404 85.0267 386.79 85.16 388.604 85.16H394.444C397.804 85.16 400.337 84.7067 402.044 83.8C403.804 82.8933 405.057 81.4267 405.804 79.4C406.604 77.32 407.19 74.52 407.564 71H409.404C409.244 72.44 409.164 74.36 409.164 76.76C409.164 77.7733 409.19 79.24 409.244 81.16C409.35 83.0267 409.51 84.9733 409.724 87C407.004 86.8933 403.937 86.84 400.524 86.84C397.11 86.7867 394.07 86.76 391.404 86.76C390.23 86.76 388.71 86.76 386.844 86.76C385.03 86.76 383.057 86.7867 380.924 86.84C378.79 86.84 376.63 86.8667 374.444 86.92C372.257 86.92 370.177 86.9467 368.204 87V85.4C370.017 85.2933 371.377 85.08 372.284 84.76C373.244 84.44 373.884 83.8 374.204 82.84C374.524 81.88 374.684 80.44 374.684 78.52V38.84C374.684 36.8667 374.524 35.4267 374.204 34.52C373.884 33.56 373.244 32.92 372.284 32.6C371.377 32.2267 370.017 32.0133 368.204 31.96V30.36C370.177 30.4133 372.257 30.4667 374.444 30.52C376.63 30.52 378.79 30.5467 380.924 30.6C383.057 30.6 385.03 30.6 386.844 30.6C388.71 30.6 390.23 30.6 391.404 30.6C393.857 30.6 396.63 30.6 399.724 30.6C402.87 30.5467 405.67 30.4667 408.124 30.36ZM394.364 57.72C394.364 57.72 394.364 57.9867 394.364 58.52C394.364 59.0533 394.364 59.32 394.364 59.32H379.724C379.724 59.32 379.724 59.0533 379.724 58.52C379.724 57.9867 379.724 57.72 379.724 57.72H394.364ZM396.684 47.16C396.47 50.2 396.364 52.52 396.364 54.12C396.417 55.72 396.444 57.1867 396.444 58.52C396.444 59.8533 396.47 61.32 396.524 62.92C396.577 64.52 396.71 66.84 396.924 69.88H395.084C394.87 68.1733 394.604 66.52 394.284 64.92C394.017 63.2667 393.377 61.9333 392.364 60.92C391.404 59.8533 389.75 59.32 387.404 59.32V57.72C389.164 57.72 390.497 57.3733 391.404 56.68C392.364 55.9333 393.057 55 393.484 53.88C393.91 52.76 394.204 51.6133 394.364 50.44C394.524 49.2133 394.684 48.12 394.844 47.16H396.684ZM437.354 30.36V31.96C435.54 32.0133 434.154 32.2267 433.194 32.6C432.287 32.92 431.674 33.56 431.354 34.52C431.034 35.4267 430.874 36.8667 430.874 38.84V78.52C430.874 80.44 431.034 81.88 431.354 82.84C431.674 83.8 432.287 84.44 433.194 84.76C434.154 85.0267 435.54 85.16 437.354 85.16H443.194C445.7 85.16 447.727 84.8933 449.274 84.36C450.874 83.8267 452.127 83 453.034 81.88C453.994 80.7067 454.714 79.16 455.194 77.24C455.674 75.32 456.047 72.9733 456.314 70.2H458.154C457.994 71.8533 457.914 74.04 457.914 76.76C457.914 77.7733 457.94 79.24 457.994 81.16C458.1 83.0267 458.26 84.9733 458.474 87C455.754 86.8933 452.687 86.84 449.274 86.84C445.86 86.7867 442.82 86.76 440.154 86.76C438.98 86.76 437.46 86.76 435.594 86.76C433.78 86.76 431.807 86.7867 429.674 86.84C427.54 86.84 425.38 86.8667 423.194 86.92C421.007 86.92 418.927 86.9467 416.954 87V85.4C418.767 85.2933 420.127 85.08 421.034 84.76C421.994 84.44 422.634 83.8 422.954 82.84C423.274 81.88 423.434 80.44 423.434 78.52V38.84C423.434 36.8667 423.274 35.4267 422.954 34.52C422.634 33.56 421.994 32.92 421.034 32.6C420.127 32.2267 418.767 32.0133 416.954 31.96V30.36C418.074 30.4133 419.54 30.4667 421.354 30.52C423.167 30.5733 425.114 30.6 427.194 30.6C429.06 30.6 430.9 30.5733 432.714 30.52C434.58 30.4667 436.127 30.4133 437.354 30.36ZM484.385 30.36V31.96C482.572 32.0133 481.185 32.2267 480.225 32.6C479.318 32.92 478.705 33.56 478.385 34.52C478.065 35.4267 477.905 36.8667 477.905 38.84V78.52C477.905 80.44 478.065 81.88 478.385 82.84C478.705 83.8 479.318 84.44 480.225 84.76C481.185 85.0267 482.572 85.16 484.385 85.16H490.225C492.732 85.16 494.758 84.8933 496.305 84.36C497.905 83.8267 499.158 83 500.065 81.88C501.025 80.7067 501.745 79.16 502.225 77.24C502.705 75.32 503.078 72.9733 503.345 70.2H505.185C505.025 71.8533 504.945 74.04 504.945 76.76C504.945 77.7733 504.972 79.24 505.025 81.16C505.132 83.0267 505.292 84.9733 505.505 87C502.785 86.8933 499.718 86.84 496.305 86.84C492.892 86.7867 489.852 86.76 487.185 86.76C486.012 86.76 484.492 86.76 482.625 86.76C480.812 86.76 478.838 86.7867 476.705 86.84C474.572 86.84 472.412 86.8667 470.225 86.92C468.038 86.92 465.958 86.9467 463.985 87V85.4C465.798 85.2933 467.158 85.08 468.065 84.76C469.025 84.44 469.665 83.8 469.985 82.84C470.305 81.88 470.465 80.44 470.465 78.52V38.84C470.465 36.8667 470.305 35.4267 469.985 34.52C469.665 33.56 469.025 32.92 468.065 32.6C467.158 32.2267 465.798 32.0133 463.985 31.96V30.36C465.105 30.4133 466.572 30.4667 468.385 30.52C470.198 30.5733 472.145 30.6 474.225 30.6C476.092 30.6 477.932 30.5733 479.745 30.52C481.612 30.4667 483.158 30.4133 484.385 30.36ZM533.496 29.96L553.016 80.28C553.816 82.3067 554.723 83.6667 555.736 84.36C556.75 85 557.683 85.3467 558.536 85.4V87C557.47 86.8933 556.163 86.84 554.616 86.84C553.07 86.7867 551.523 86.76 549.976 86.76C547.896 86.76 545.95 86.7867 544.136 86.84C542.323 86.84 540.856 86.8933 539.736 87V85.4C542.456 85.2933 544.19 84.84 544.936 84.04C545.683 83.1867 545.523 81.4 544.456 78.68L529.576 38.92L530.856 37.88L516.936 74.04C516.083 76.1733 515.576 77.9867 515.416 79.48C515.256 80.92 515.39 82.0667 515.816 82.92C516.296 83.7733 517.07 84.3867 518.136 84.76C519.256 85.1333 520.643 85.3467 522.296 85.4V87C520.803 86.8933 519.23 86.84 517.576 86.84C515.976 86.7867 514.483 86.76 513.096 86.76C511.763 86.76 510.616 86.7867 509.656 86.84C508.75 86.84 507.896 86.8933 507.096 87V85.4C508.163 85.1333 509.256 84.52 510.376 83.56C511.496 82.5467 512.51 80.84 513.416 78.44L532.216 29.96C532.43 29.96 532.643 29.96 532.856 29.96C533.07 29.96 533.283 29.96 533.496 29.96ZM543.256 63.96V65.56H519.416L520.216 63.96H543.256Z" fill="#3F3D56"/>
<defs>
<clipPath id="clip0_4_81">
<rect width="741" height="554.474" fill="white" transform="translate(0 108.526)"/>
</clipPath>
</defs>
</svg>
