<svg width="26" height="25" viewBox="0 0 26 25" fill="none" xmlns="http://www.w3.org/2000/svg">
<path d="M3.25 3.125H3.54071C4.05397 3.125 4.31105 3.125 4.52039 3.21404C4.70496 3.29254 4.86277 3.41893 4.97656 3.5792C5.10542 3.76068 5.15195 4.00302 5.24482 4.48674L7.58338 16.6667L18.8736 16.6667C19.3646 16.6667 19.6108 16.6667 19.8142 16.5833C19.9938 16.5096 20.1488 16.3902 20.2638 16.2385C20.3939 16.0669 20.4491 15.8372 20.5592 15.3782L20.5601 15.375L22.2601 8.29163L22.2604 8.29014C22.4275 7.59391 22.5113 7.24495 22.4193 6.97123C22.3386 6.73106 22.1688 6.52744 21.9436 6.39783C21.6867 6.25 21.3154 6.25 20.5711 6.25H5.95833M19.5 21.875C18.9017 21.875 18.4167 21.4086 18.4167 20.8333C18.4167 20.258 18.9017 19.7917 19.5 19.7917C20.0983 19.7917 20.5833 20.258 20.5833 20.8333C20.5833 21.4086 20.0983 21.875 19.5 21.875ZM8.66667 21.875C8.06836 21.875 7.58333 21.4086 7.58333 20.8333C7.58333 20.258 8.06836 19.7917 8.66667 19.7917C9.26498 19.7917 9.75 20.258 9.75 20.8333C9.75 21.4086 9.26498 21.875 8.66667 21.875Z" stroke="#FDF1F1" stroke-width="2" stroke-linecap="round" stroke-linejoin="round"/>
<line x1="14" y1="13.6501" x2="14" y2="10" stroke="#FDF1F1" stroke-width="2" stroke-linecap="round"/>
<path d="M12 12H16" stroke="#FDF1F1" stroke-width="2" stroke-linecap="round"/>
</svg>
