<svg width="458" height="462" viewBox="0 0 458 462" fill="none" xmlns="http://www.w3.org/2000/svg">
<path d="M457.999 231.335C457.999 330.924 398.462 415.769 315.076 448.055C302.391 452.976 289.297 456.62 275.967 458.938C239.296 465.315 201.697 461.694 166.709 448.419C82.7965 416.398 22.8235 331.262 22.8626 231.286C22.8626 103.945 120.275 0.670655 240.432 0.670655C269.004 0.668644 297.297 6.63359 323.694 18.2249C350.091 29.8161 374.077 46.8067 394.28 68.2263C414.483 89.6458 430.509 115.075 441.442 143.061C452.375 171.048 458.001 201.043 457.999 231.335Z" fill="#F2F2F2"/>
<path d="M315.075 448.055C302.389 452.976 289.295 456.62 275.965 458.939C239.293 465.315 201.694 461.695 166.706 448.419L176.754 405.676L177.36 403.11L197.864 403.194L300.873 403.586L302.192 407.717L315.075 448.055Z" fill="#2F2E41"/>
<path d="M33.9028 338.585C34.6215 339.368 35.281 340.21 35.875 341.102L128.251 338.703L139.028 317.825L170.872 330.949L155.175 369.878C153.907 373.022 151.712 375.646 148.918 377.355C146.125 379.064 142.884 379.766 139.681 379.357L35.317 365.986C32.8551 369.29 29.5028 371.722 25.7057 372.957C21.9087 374.192 17.847 374.172 14.0609 372.9C10.2748 371.628 6.9437 369.164 4.51065 365.836C2.0776 362.507 0.657929 358.473 0.440477 354.268C0.223025 350.064 1.21809 345.889 3.29333 342.299C5.36856 338.709 8.42559 335.873 12.0578 334.17C15.6901 332.467 19.7254 331.976 23.627 332.764C27.5286 333.551 31.1116 335.579 33.8994 338.578L33.9028 338.585Z" fill="#ED9DA0"/>
<path d="M167.475 354.313L123.504 335.661L123.691 334.832C123.88 333.992 142.595 251.082 145.08 237.758C147.668 223.877 157.126 220.039 157.527 219.882L157.82 219.768L175.222 225.384L182.866 289.045L167.475 354.313Z" fill="#B41A23"/>
<path d="M189.428 162.321V114.364C189.369 105.903 190.886 97.5122 193.893 89.6741C196.9 81.8361 201.337 74.7048 206.95 68.6895C212.563 62.6742 219.242 57.8933 226.602 54.6213C233.962 51.3492 241.859 49.6505 249.841 49.6224C257.822 49.5944 265.729 51.2376 273.11 54.4579C280.491 57.6781 287.199 62.412 292.849 68.3877C298.5 74.3634 302.982 81.4634 306.037 89.2801C309.093 97.0969 310.663 105.476 310.657 113.938C310.657 114.08 310.657 114.222 310.657 114.364V162.321C310.654 164.61 309.795 166.804 308.268 168.422C306.742 170.04 304.673 170.951 302.514 170.954H197.57C195.412 170.951 193.342 170.04 191.816 168.422C190.29 166.804 189.431 164.61 189.428 162.321Z" fill="#2F2E41"/>
<path d="M224.288 160.617L262.616 160.635L270.745 206.635L222.633 207.502L224.288 160.617Z" fill="#ED9DA0"/>
<path d="M237.586 169.836C262.13 169.836 282.026 148.742 282.026 122.721C282.026 96.7002 262.13 75.6062 237.586 75.6062C213.043 75.6062 193.146 96.7002 193.146 122.721C193.146 148.742 213.043 169.836 237.586 169.836Z" fill="#ED9DA0"/>
<path d="M158.233 219.374L201.464 204.354L214.16 185.895L275.947 189.771L285.019 211.314L317.966 227.82L312.902 327.512L304.239 420.81C259.698 396.358 176.573 415 175.845 415.303L158.233 219.374Z" fill="#BD2D36"/>
<path d="M179.172 117.667C179.187 104.189 184.243 91.2677 193.232 81.7374C202.221 72.2072 214.409 66.8466 227.122 66.8315H236.169C248.881 66.8468 261.069 72.2076 270.058 81.7378C279.047 91.268 284.103 104.189 284.117 117.667V118.626H264.998L258.477 99.2663L257.172 118.626H247.292L244.002 108.858L243.343 118.626H179.172V117.667Z" fill="#2F2E41"/>
<path d="M233.214 176.347C232.316 175.058 231.78 173.527 231.667 171.929C231.554 170.332 231.869 168.733 232.576 167.317C242.163 147.985 255.586 112.261 237.769 90.2313L236.495 88.6501H288.219V170.984L241.23 179.774C240.754 179.863 240.271 179.909 239.787 179.909C238.504 179.909 237.239 179.586 236.097 178.968C234.955 178.349 233.967 177.452 233.215 176.35L233.214 176.347Z" fill="#2F2E41"/>
<path d="M262.418 416.707C263.448 416.681 264.48 416.741 265.502 416.887L326.653 343.443L319.539 320.876L350.267 305.042L366.522 343.705C367.836 346.829 368.158 350.32 367.44 353.654C366.723 356.988 365.005 359.985 362.544 362.196L282.338 434.242C282.95 438.403 282.352 442.662 280.624 446.453C278.896 450.244 276.12 453.388 272.666 455.466C269.212 457.545 265.243 458.459 261.287 458.087C257.331 457.715 253.575 456.076 250.52 453.386C247.464 450.696 245.253 447.084 244.181 443.03C243.109 438.975 243.227 434.671 244.518 430.689C245.81 426.707 248.214 423.237 251.412 420.739C254.609 418.242 258.448 416.835 262.418 416.707Z" fill="#ED9DA0"/>
<path d="M321.768 350.592L296.26 286.98L306.209 242.671L316.929 228.314C317.714 227.958 318.56 227.779 319.414 227.787C320.268 227.795 321.111 227.991 321.89 228.363C325.846 230.049 329.208 235.219 331.895 243.729L355.801 315.919L321.768 350.592Z" fill="#B41A23"/>
</svg>
